<svg xmlns="http://www.w3.org/2000/svg" width="24" height="20" viewBox="1038.5 171 24 20"><path d="M1061.09 174.452a8.762 8.762 0 0 1-2.166 2.238 12.397 12.397 0 0 1-.494 4.041 12.412 12.412 0 0 1-1.548 3.335 13.162 13.162 0 0 1-2.481 2.823c-.96.82-2.114 1.473-3.461 1.961s-2.792.731-4.333.731c-2.405 0-4.62-.649-6.644-1.948.359.04.704.06 1.034.06 2.009 0 3.804-.619 5.384-1.857a4.205 4.205 0 0 1-2.517-.865 4.265 4.265 0 0 1-1.53-2.145 4.319 4.319 0 0 0 1.957-.072c-1-.2-1.829-.698-2.488-1.494a4.194 4.194 0 0 1-.989-2.755v-.054c.614.34 1.268.521 1.964.542a4.316 4.316 0 0 1-1.409-1.545 4.23 4.23 0 0 1-.52-2.061c0-.78.195-1.506.586-2.178a12.35 12.35 0 0 0 3.952 3.199 12.047 12.047 0 0 0 4.981 1.33 4.194 4.194 0 0 1-.114-.987c0-1.196.423-2.218 1.27-3.064.847-.847 1.868-1.27 3.064-1.27 1.252 0 2.307.456 3.165 1.368a8.627 8.627 0 0 0 2.752-1.053 4.192 4.192 0 0 1-1.904 2.399 8.558 8.558 0 0 0 2.489-.679z" fill="#fff"/></svg>