<svg xmlns="http://www.w3.org/2000/svg" width="24" height="20" viewBox="1038.5 171 24 20"><path d="M1056.023 172.2c.312.709.514 1.885.213 2.747 1.234 1.053 1.657 3.613 1.062 5.705 1.758.134 3.852-.064 5.203.475-1.263-.162-2.988-.481-4.618-.37-.309.021-.766-.012-.744.423 1.886.148 3.76.309 5.31.792-1.536-.25-3.401-.633-5.31-.686-.789 1.556-2.376 2.321-4.566 2.482.236.513.686.708.797 1.532.164 1.231-.257 3.035.158 3.856.2.393.525.404.744.74-.537.635-1.867-.071-2.018-.74-.26-1.145.395-2.921-.318-3.697.05 1.249-.296 3.004.053 4.119.137.439.534.608.425 1.004-2.494.253-1.452-3.228-1.859-5.282-.376.027-.211.564-.212.793-.011 2.006.411 4.758-1.752 4.49-.064-.421.29-.565.424-.95.395-1.129-.074-2.811.107-4.173-.826.622.086 2.795-.425 3.909-.295.641-1.244.92-1.964.633.094-.477.587-.4.796-.845.292-.62.002-1.513.106-2.43-1.528.305-2.713-.044-3.292-1.004-.26-.431-.324-.938-.638-1.32-.312-.382-.81-.434-.955-.95 1.892-.455 1.964 1.947 3.664 2.007.521.019.792-.151 1.274-.264.135-.606.424-1.058.849-1.375-2.114-.289-3.86-.948-4.672-2.534a29.105 29.105 0 0 0-5.311.739c1.479-.537 3.303-.73 5.257-.793-.115-.693-1.125-.502-1.752-.475-1.165.051-2.632.196-3.558.37 1.343-.479 3.226-.419 5.045-.423-.556-1.744-.363-4.515.85-5.546-.344-.866-.237-2.284.212-2.958 1.354.061 2.176.651 3.026 1.216 1.056-.3 2.165-.449 3.611-.37.608.034 1.241.307 1.698.264.45-.042.945-.546 1.38-.739.569-.253 1.05-.349 1.7-.372z" fill="#fff"/></svg>