<?xml version="1.0" encoding="utf-8"?>
<!-- Generator: Adobe Illustrator 19.0.1, SVG Export Plug-In . SVG Version: 6.00 Build 0)  -->
<!DOCTYPE svg PUBLIC "-//W3C//DTD SVG 1.1//EN" "http://www.w3.org/Graphics/SVG/1.1/DTD/svg11.dtd">
<svg version="1.1" id="Layer_1" xmlns="http://www.w3.org/2000/svg" xmlns:xlink="http://www.w3.org/1999/xlink" x="0px" y="0px"
	 width="1024px" height="512px" viewBox="0 0 1024 512" style="enable-background:new 0 0 1024 512;" xml:space="preserve">
<style type="text/css">
	.st0{fill:#1F1F1F;}
	.st1{fill:none;stroke:#6D6E71;stroke-width:6;stroke-miterlimit:10;}
	.st2{fill:#11B2D3;}
	.st3{fill:#6D6E71;}
</style>
<rect class="st0" width="1024" height="512"/>
<path class="st1" d="M54.6,81.4h36.1c20.6,0,37.3,16.7,37.3,37.3v211.8c0,20.6,16.7,37.3,37.3,37.3h103.4h28.8
	c20.6,0,37.3,16.7,37.3,37.3v0c0,20.6,16.7,37.3,37.3,37.3h138.3c20.6,0,37.3-16.7,37.3-37.3V404c0-20.6,16.7-37.3,37.3-37.3h41"/>
<polyline class="st1" points="63.1,80.2 814.7,80.2 814.7,292 "/>
<path class="st1" d="M127.9,115.7c0,21,17.1,37.9,38.1,37.9h121.2c21,0,37.9,17,37.9,37.9v137.2c0,21,17,37.9,37.9,37.9h619.4"/>
<path class="st1" d="M621.3,366.7h23.3c20.3,0,36.7-16.4,36.7-36.7v0c0-20.3,16.4-36.7,36.7-36.7h139.5c20.3,0,36.7,16.4,36.7,36.7
	v0c0,20.3,16.4,36.7,36.7,36.7h46.5"/>
<path class="st1" d="M210,153.6h35.5c20.3,0,36.7-16.4,36.7-36.7v0c0-20.3,16.4-36.7,36.7-36.7h95.5"/>
<g>
	<path class="st2" d="M54.6,100.4c-10.5,0-19-8.5-19-19s8.5-19,19-19s19,8.5,19,19S65.1,100.4,54.6,100.4z"/>
	<path class="st3" d="M54.6,65.4c8.8,0,16,7.2,16,16s-7.2,16-16,16s-16-7.2-16-16S45.7,65.4,54.6,65.4 M54.6,59.4
		c-12.2,0-22,9.9-22,22s9.9,22,22,22s22-9.9,22-22S66.7,59.4,54.6,59.4L54.6,59.4z"/>
</g>
<g>
	<path class="st2" d="M208.8,175.1c-10.5,0-19-8.5-19-19s8.5-19,19-19s19,8.5,19,19S219.3,175.1,208.8,175.1z"/>
	<path class="st3" d="M208.8,140c8.8,0,16,7.2,16,16c0,8.8-7.2,16-16,16s-16-7.2-16-16C192.8,147.2,199.9,140,208.8,140 M208.8,134
		c-12.2,0-22,9.9-22,22c0,12.2,9.9,22,22,22s22-9.9,22-22C230.8,143.9,221,134,208.8,134L208.8,134z"/>
</g>
<g>
	<path class="st2" d="M759.6,309.8c-10.5,0-19-8.5-19-19c0-10.5,8.5-19,19-19s19,8.5,19,19C778.6,301.3,770.1,309.8,759.6,309.8z"/>
	<path class="st3" d="M759.6,274.8c8.8,0,16,7.2,16,16c0,8.8-7.2,16-16,16s-16-7.2-16-16C743.6,282,750.7,274.8,759.6,274.8
		 M759.6,268.8c-12.2,0-22,9.9-22,22c0,12.2,9.9,22,22,22c12.2,0,22-9.9,22-22C781.6,278.6,771.8,268.8,759.6,268.8L759.6,268.8z"/>
</g>
<g>
	<path class="st2" d="M815.9,309.8c-10.5,0-19-8.5-19-19c0-10.5,8.5-19,19-19s19,8.5,19,19C834.9,301.3,826.4,309.8,815.9,309.8z"/>
	<path class="st3" d="M815.9,274.8c8.8,0,16,7.2,16,16c0,8.8-7.2,16-16,16c-8.8,0-16-7.2-16-16C799.9,282,807.1,274.8,815.9,274.8
		 M815.9,268.8c-12.2,0-22,9.9-22,22c0,12.2,9.9,22,22,22c12.2,0,22-9.9,22-22C837.9,278.6,828.1,268.8,815.9,268.8L815.9,268.8z"/>
</g>
<g>
	<path class="st2" d="M977.5,385.7c-10.5,0-19-8.5-19-19s8.5-19,19-19s19,8.5,19,19S988,385.7,977.5,385.7z"/>
	<path class="st3" d="M977.5,350.7c8.8,0,16,7.2,16,16s-7.2,16-16,16s-16-7.2-16-16S968.6,350.7,977.5,350.7 M977.5,344.7
		c-12.2,0-22,9.9-22,22s9.9,22,22,22c12.2,0,22-9.9,22-22S989.6,344.7,977.5,344.7L977.5,344.7z"/>
</g>
<g>
	<path class="st2" d="M620.1,385.7c-10.5,0-19-8.5-19-19s8.5-19,19-19s19,8.5,19,19S630.5,385.7,620.1,385.7z"/>
	<path class="st3" d="M620.1,350.7c8.8,0,16,7.2,16,16s-7.2,16-16,16c-8.8,0-16-7.2-16-16S611.2,350.7,620.1,350.7 M620.1,344.7
		c-12.2,0-22,9.9-22,22s9.9,22,22,22c12.2,0,22-9.9,22-22S632.2,344.7,620.1,344.7L620.1,344.7z"/>
</g>
<g>
	<path class="st2" d="M412,385.7c-10.5,0-19-8.5-19-19s8.5-19,19-19s19,8.5,19,19S422.5,385.7,412,385.7z"/>
	<path class="st3" d="M412,350.7c8.8,0,16,7.2,16,16s-7.2,16-16,16c-8.8,0-16-7.2-16-16S403.1,350.7,412,350.7 M412,344.7
		c-12.2,0-22,9.9-22,22s9.9,22,22,22s22-9.9,22-22S424.1,344.7,412,344.7L412,344.7z"/>
</g>
<g>
	<path class="st2" d="M412,461.6c-10.5,0-19-8.5-19-19s8.5-19,19-19s19,8.5,19,19S422.5,461.6,412,461.6z"/>
	<path class="st3" d="M412,426.5c8.8,0,16,7.2,16,16s-7.2,16-16,16c-8.8,0-16-7.2-16-16S403.1,426.5,412,426.5 M412,420.5
		c-12.2,0-22,9.9-22,22s9.9,22,22,22s22-9.9,22-22S424.1,420.5,412,420.5L412,420.5z"/>
</g>
<g>
	<path class="st2" d="M471.9,461.6c-10.5,0-19-8.5-19-19s8.5-19,19-19s19,8.5,19,19S482.4,461.6,471.9,461.6z"/>
	<path class="st3" d="M471.9,426.5c8.8,0,16,7.2,16,16s-7.2,16-16,16s-16-7.2-16-16S463.1,426.5,471.9,426.5 M471.9,420.5
		c-12.2,0-22,9.9-22,22s9.9,22,22,22s22-9.9,22-22S484.1,420.5,471.9,420.5L471.9,420.5z"/>
</g>
<g>
	<path class="st2" d="M265.1,385.7c-10.5,0-19-8.5-19-19s8.5-19,19-19s19,8.5,19,19S275.6,385.7,265.1,385.7z"/>
	<path class="st3" d="M265.1,350.7c8.8,0,16,7.2,16,16s-7.2,16-16,16s-16-7.2-16-16S256.2,350.7,265.1,350.7 M265.1,344.7
		c-12.2,0-22,9.9-22,22s9.9,22,22,22s22-9.9,22-22S277.3,344.7,265.1,344.7L265.1,344.7z"/>
</g>
<g>
	<path class="st2" d="M211.2,385.7c-10.5,0-19-8.5-19-19s8.5-19,19-19s19,8.5,19,19S221.7,385.7,211.2,385.7z"/>
	<path class="st3" d="M211.2,350.7c8.8,0,16,7.2,16,16s-7.2,16-16,16c-8.8,0-16-7.2-16-16S202.4,350.7,211.2,350.7 M211.2,344.7
		c-12.2,0-22,9.9-22,22s9.9,22,22,22c12.2,0,22-9.9,22-22S223.4,344.7,211.2,344.7L211.2,344.7z"/>
</g>
<g>
	<path class="st2" d="M413.2,100.4c-10.5,0-19-8.5-19-19s8.5-19,19-19s19,8.5,19,19S423.7,100.4,413.2,100.4z"/>
	<path class="st3" d="M413.2,65.4c8.8,0,16,7.2,16,16s-7.2,16-16,16s-16-7.2-16-16S404.4,65.4,413.2,65.4 M413.2,59.4
		c-12.2,0-22,9.9-22,22s9.9,22,22,22s22-9.9,22-22S425.4,59.4,413.2,59.4L413.2,59.4z"/>
</g>
<g>
	<path class="st2" d="M814.7,100.4c-10.5,0-19-8.5-19-19s8.5-19,19-19s19,8.5,19,19S825.2,100.4,814.7,100.4z"/>
	<path class="st3" d="M814.7,65.4c8.8,0,16,7.2,16,16s-7.2,16-16,16c-8.8,0-16-7.2-16-16S805.8,65.4,814.7,65.4 M814.7,59.4
		c-12.2,0-22,9.9-22,22s9.9,22,22,22c12.2,0,22-9.9,22-22S826.8,59.4,814.7,59.4L814.7,59.4z"/>
</g>
</svg>
