<?xml version="1.0" encoding="utf-8"?>
<!-- Generator: Adobe Illustrator 19.1.0, SVG Export Plug-In . SVG Version: 6.00 Build 0)  -->
<svg version="1.1" id="Layer_1" xmlns="http://www.w3.org/2000/svg" xmlns:xlink="http://www.w3.org/1999/xlink" x="0px" y="0px"
	 width="775px" height="500px" viewBox="138.5 -175 775 500" style="enable-background:new 138.5 -175 775 500;"
	 xml:space="preserve">
<style type="text/css">
	.st0{fill:#262626;}
	.st1{fill:none;stroke:#666766;stroke-miterlimit:10;}
	.st2{fill:none;stroke:url(#SVGID_1_);stroke-width:4;stroke-miterlimit:10;}
	.st3{fill:#262626;stroke:#0BB550;stroke-miterlimit:10;}
	.st4{fill:none;stroke:#008E8A;stroke-width:4;stroke-miterlimit:10;}
	.st5{fill:none;stroke:url(#SVGID_2_);stroke-width:4;stroke-miterlimit:10;}
	.st6{fill:#048F74;}
	.st7{fill:#113E20;}
	.st8{fill:#2673BA;}
	.st9{fill:#807F80;}
	.st10{fill:#0A8040;}
	.st11{fill:#262626;stroke:#13B2D4;stroke-miterlimit:10;}
	.st12{fill:url(#SVGID_3_);}
</style>
<rect x="138.5" y="-175" class="st0" width="775" height="500"/>
<path class="st1" d="M605,223.6c0,0,31.5-12,31.5-3s9,10.5,9,10.5h9c0,0,4.5-24,10.5-24s11.1,2.8,11.8,0.2c0.7-2.6,8.6-20.5,2-20.5
	s-10.6-4-11.9-7.3c-1.3-3.3-2.6-13.2,0.7-15.2c3.3-2,5.9-15.2,9.9-15.2s14.5,2.6,14.5-3.3s0.7-15.8,5.3-15.8
	c4.6,0,8.6-11.2,15.2-10.6c6.6,0.7,8.6,6.6,8.6-0.7s9.2-11.9,13.9-11.2c4.6,0.7,7.3,2.6,11.2,0.7c4-2,7.3-0.7,7.3-0.7"/>
<path class="st1" d="M693.5,32.9c0,0,15-6,22.5-3s15,4.5,15,9s1.6,10.9,5.3,10.9s10.3,0.9,10.3,2.3c0,1.4,0.9,5.6,4.7,7.5
	c3.7,1.9,10.3,2.8,12.2,2.3s8-7.5,13.1-9.4s14.5-8.4,18.3-8c3.7,0.5,5.6,0.5,9.4,3.3s6.6,5.6,9.4,5.6s8.4-5.6,15.5-3.7
	s5.2,1.9,5.2,4.7s3.7,11.2,6.1,11.2c2.3,0,4.2,0.9,9.4,3.3c5.2,2.3,10.3,1.9,10.8,6.1s-0.9,7,1.9,7.5c2.8,0.5,3.7,1.9,8,5.6
	c4.2,3.7,1.9,3.7,6.1,3.7c4.2,0,11.7-2.3,14.5,0.5s3.3,2.8,3.3,6.1s-1.9,1.4,2.8,5.2c2.1,1.7,4,2.6,5.5,3.1c2.3,0.8,4.3,2.3,5.8,4.3
	c2.2,3.1,5,7.3,5,9.5"/>
<path class="st1" d="M407.8,255c0,0,0.5-7,4.5-8s8-0.5,8.5-2.5s3-4,4-6s1-4.5,4.5-7.5s9-1.5,9.5-3.5s2.5-12,7.5-11.5s14,0.5,15-2.5
	s-0.5-10.5,8-10.5s14.5,2,14.5,3.5s4,0.5,6,6s7.5,10,11,10s9,2,15.5,2s15,2,18-2s12.5-2,15-2s14,0,14-3.5s3.5-7,4.5-14
	s-4.5-14,0-15.5s1.5-10,3.5-11.5s3.5-3.5,7-3.5s10.5,3,14,4.5s-0.5,6.5,4,6.5s15-1,15-4.5s1-10,1.5-14.5s2.5-15.5,10.5-16
	s19.5,1,19.5-3s-1.5-14,3.5-14.5s13-1,13-5s-6.5-9.5-4-18.5s7-6,11-6s8.5-1,8.5-2.5s3-11.5,9.5-11.5s8.5,2,15-0.5s13-5.5,16-2.5"/>
<path class="st1" d="M588.5-39.1c0,0-12,13.5-6,21s15,16.5,13.5,24c-1.5,7.5-1.5,4.5-3,16.5s7.5,15,10.5,19.5s22.5,3,22.5,7.5
	S638,60,638,60"/>
<path class="st1" d="M508.8,188.9c0,0,16,6.5,15-6.5s-4-22-1-26s12-24,12-24s-1,3,7-5s7,4,16-8s17-22,23-22s14,6,18,0s3-15,11-17
	s20-8,20-13s-0.1-3.7-0.1-3.7"/>
<path class="st1" d="M399.3-45.7c0,0,2,3,3,7.5s-2,7.5,3,10.5s6,3.5,7.5,8s1,4.5,6,7.5s9.5,3,12,7.5s2,8.5,5,10s3.5,4,8.5,4
	s2.5,1,9.5-1s14.5-4,16.5-1s2,3,4.5,7.5s4,7,8,8.5s8.5,4,8.5,7s-1,2.5,0,6s4,3,4,6s6,5,6,9.5s5.5,4,6.5,9s-1,12.5-1,12.5"/>
<path class="st1" d="M411.8,151.4c0,0,28,7,31-2s10-15,15-15s25,3,32-6s8-26,14-26s17-5,27-5s27,6,29-1s16-14,16-14"/>
<linearGradient id="SVGID_1_" gradientUnits="userSpaceOnUse" x1="273.7" y1="109.9355" x2="475.747" y2="109.9355" gradientTransform="matrix(1 0 0 -1 0 150)">
	<stop  offset="0" style="stop-color:#39B54A"/>
	<stop  offset="1" style="stop-color:#008C8C"/>
</linearGradient>
<path class="st2" d="M275.7,21.8c0,0,0,5,3.5,9s22-21.6,25.5-16.1c0,0,3.3,6.3,6.3,6.3s6-6.7,11.5-5.2s13.7-13.6,16.7-10.1
	c3,3.5,8-0.8,10.5,2.2s1.5,2.5,8,8s8.5,3,13.5,7.5s13.5,11.5,13.5,14s3.5,4,7,2s15-4,15-0.5s3,4,5.5,9.5s1.5,6,8,11s2,9,13,7.5
	s4-4,13-1.5s14,1,17.5,6.5s11.2,1.9,11.2,1.9"/>
<path class="st1" d="M350.2,202.9c0,0,0-7,4-7.5s9,1.5,9-1.5s2-15,7-15.5s7,4.5,15-3s9.5-8.5,9.5-12s1.5-3.5,8-6.5s11-4.5,11-10
	s-1.5-9.5,1.5-12.5s10-4,10.5-10s-0.5-6.5,1.5-10.5s3-11.5,9.5-15.5"/>
<path class="st1" d="M274.7,62.3c0,0,15,11,18,5s9-7,16-6s14-2,18,7s11,12,15,12s18-5,24,0s7,11,13,11s21-7.6,21-0.6"/>
<circle class="st3" cx="274.2" cy="15" r="17.9"/>
<polygon class="st0" points="281.8,34.4 282.8,33.9 283.4,34.4 283.2,35.8 282.9,35.8 282,35.3 "/>
<path class="st4" d="M475,73.8c1.3-1.2,3-2.1,4.8-2.4c6-1,12-7,16-6s7.5,4,11,8s4,5.5,7,6.5s7.5,3,12,3s8.5-1.5,13-1s11,3,17.5,3
	s19.5-1.5,23-1.5s10.5-2,14.5-5s10.5-5,14.5-6.5s8-4.5,12.5-4.5s6.5-3.5,14.5-5.5s18.5-8,21.5-8s14,1,17.5,6s7.5,6,7.5,8.5
	s-1.5,5.5,1,8s12.5,4.5,19.5,4.5s11,1,14.5,5s6,8.5,9.5,9.5s3.5,3.5,8,4.5s7.5,1,14,5s14,8,21,8.5s25,9,29.5,12.5s3,8,8,10
	c0,0-3.7-0.3,12.8,3s24.1-7.7,36.1-6.6s26.3-24.1,37.2-18.6s1.1,2.2,10.9,5.5c3.6,1.2,6.4,3.2,9.7,3.2"/>
<linearGradient id="SVGID_2_" gradientUnits="userSpaceOnUse" x1="262.5267" y1="37.1084" x2="476.3099" y2="37.1084" gradientTransform="matrix(1 0 0 -1 0 150)">
	<stop  offset="0" style="stop-color:#27AAE1"/>
	<stop  offset="1" style="stop-color:#008C8C"/>
</linearGradient>
<path class="st5" d="M262.7,127.4c0,0,11.5,1,12.5-2.5s1.5-4.5,8-5c3.8-0.3,5.6,4.1,6.4,7.8c0.8,3.6,3.1,6.8,6.2,8.8
	c5.8,3.8,14.1,8.8,14.1,6.2c0-4,9.9,8.2,12.9,8.2s10.5,5,14.5-14c0,0,3-4,9-4s11,0.5,14-5s8.5-1,8.5-7s2.5-9.5,6.5-12s18-9,18-12.5
	s7.5-7.5,10.5-5s14.5,4.5,21,7.5s14.5,1,15-2.5s8-9,14-9s13-1,15-4.5c1.4-2.4,3.2-6.5,6.2-9.1"/>
<path class="st6" d="M286.7,3.7c0.9,1,1.7,2,2.3,3.1c1,1.8,1.6,3.8,1.9,5.8c0.3,2.2,0.1,4.4-0.4,6.6c0,0,0,0,0,0.1
	c-0.9-0.3-1.7-0.5-2.6-0.8c-1.4-0.5-2.7-1-4-1.7c-0.1-0.1-0.3-0.2-0.4-0.3c-0.3-0.4-0.6-0.9-0.8-1.3c-0.3-0.9-0.6-1.8-1-2.6
	c-0.5-1.1-1.1-2.2-1.9-3.2c-0.1-0.1-0.2-0.3-0.4-0.4l0,0c0-0.1,0-0.1-0.1-0.1l0,0l0,0l0,0c0,0,0,0,0-0.1c0,0,0-0.1-0.1-0.1
	c-0.3-0.5-0.6-1-0.7-1.6V7l0,0c0-0.1,0-0.2-0.1-0.3c-0.5-2.2-1.5-4.2-3.2-5.9c0.3,0,0.6,0,0.9,0c1.1,0,2.2-0.2,3.3-0.4
	c0.7-0.2,1.4-0.4,2.1-0.7c1.5,0.7,2.9,1.6,4,2.7c0,0,0,0,0,0.1l0,0l0,0l0,0l0,0l0,0l0,0l0,0l0,0l0,0l0,0l0,0
	c0.1,0.1,0.1,0.2,0.2,0.2l0,0l0,0l0,0l0,0l0,0l0,0l0,0l0,0l0,0l0,0l0,0l0,0l0,0l0,0l0,0l0,0l0,0c0,0.1,0.1,0.1,0.2,0.2l0,0l0,0l0,0
	l0,0l0,0l0,0l0,0C286.6,3.6,286.6,3.6,286.7,3.7C286.6,3.6,286.6,3.6,286.7,3.7C286.6,3.6,286.7,3.7,286.7,3.7L286.7,3.7L286.7,3.7z
	"/>
<path class="st7" d="M281.5-0.2c-0.6,0.4-1.3,0.5-2.1,0.7c-1.1,0.3-2.2,0.4-3.3,0.4c-0.3,0-0.6,0-0.9,0c1.6,1.7,2.6,3.6,3.2,5.9
	c0,0,0,0-0.1,0c-0.2-0.5-0.4-1-0.6-1.5c-0.7-1.4-1.5-2.8-2.7-3.8c-0.5-0.4-1-0.8-1.7-1c-0.8-0.3-1.7,0.2-2,1l0,0c0,0,0,0,0,0.1
	c-0.1,0.2-0.1,0.4-0.2,0.7c0,0.1,0,0.2,0.1,0.2c0.4,0,0.8,0,1.2,0.1c0.3,0.1,0.7,0.1,0.9,0.3c0.6,0.5,1.2,1,1.6,1.7
	c0.7,1,1.2,2,1.5,3.1c0.1,0.3,0.2,0.6,0.5,0.8c0.1,0,0.1,0.1,0.1,0.1c0.4,0.5,0.8,1,1,1.6c0.8,1.8,1.3,3.6,1.6,5.6
	c0.1,0.6,0.2,1.1,0.6,1.7c0.5,0.9,1.2,1.6,2.1,2.1c1.7,1.2,3.6,1.9,5.7,2.4c0.4,0.1,0.8,0.2,1.2,0.2c-1.1,2.6-2.7,4.8-4.9,6.5
	c-0.3,0.3-0.5,0.6-0.8,0.9c-0.1,0.1,0,0.1,0,0.2c0.3,1.4,0.7,2.7,1.1,4.1c0.1,0.3,0,0.4-0.2,0.6c-0.3,0.3-0.6,0.4-1,0.6
	c-0.1,0-0.2,0.1-0.2,0.2c0,0.2,0,0.3-0.1,0.5c-0.2,0.4-0.6,0.5-1,0.3c-0.2-0.1-0.4-0.3-0.6-0.5c-0.1-0.1-0.1-0.1-0.2-0.1h-0.1
	c-0.2,0-0.4,0-0.6,0.1c-0.1,0.1-0.1,0.4-0.1,0.5c-0.2,0.6-0.8,0.7-1.2,0.3c-0.2-0.2-0.3-0.4-0.4-0.6c0-0.1-0.1-0.1-0.2-0.1
	c-0.2,0-0.5,0-0.7,0c-0.1,0-0.2,0-0.2,0.1c0,0.2-0.1,0.4-0.2,0.5c-0.2,0.4-0.7,0.4-1,0.1c-0.2-0.2-0.3-0.4-0.4-0.7
	c0-0.1-0.1-0.1-0.2-0.1c-0.2,0-0.5,0-0.7,0s-0.4-0.1-0.5-0.3c-0.4-0.4-0.6-0.9-0.8-1.5c-0.2-0.6-0.2-1.3-0.2-1.9c0-0.3,0-0.6,0-0.9
	c-0.2,0-0.3,0.1-0.4,0.1c-0.9,0.2-1.8,0.4-2.7,0.5c-0.7,0.1-1.5,0.2-2.2,0.2c-0.1,0-0.1,0-0.1,0.1c-0.2,0.5-0.5,0.8-0.9,1.1
	c-1.5,1.1-3.2,1.4-5,0.8c-0.7-0.2-1.2-0.7-1.6-1.2c-0.8-0.8-1.4-1.8-1.7-2.9c-0.1-0.4-0.1-0.7-0.1-1.1c0-0.5,0.3-0.8,0.6-1.2
	c0.4-0.4,0.8-0.8,1.3-1.2c0.1,0,0.1-0.1,0.2-0.1c0.2-0.1,0.4-0.3,0.4-0.6c0.1-0.5,0.3-1,0.6-1.4c0.3-0.4,0.7-0.6,1.2-0.4
	c0.6,0.2,1.1,0.5,1.5,0.8c0.1,0.1,0.3,0.1,0.4,0.1c0.7-0.1,1.3-0.3,1.9-0.6c0.5-0.2,0.9-0.4,1.3-0.7l0,0c-0.1,0-0.2,0-0.4-0.1
	c-1.7-0.3-3.4-0.8-4.9-1.7s-2.8-2-3.8-3.6c-0.1-0.2-0.2-0.4-0.2-0.7s0.2-0.5,0.5-0.6c0.2,0,0.4-0.1,0.6-0.3c0.5-0.4,0.8-0.9,0.9-1.5
	c0-0.2,0-0.3-0.2-0.3c-0.5-0.1-0.9-0.2-1.3-0.4c-0.5-0.2-1-0.1-1.4,0.3c-0.2,0.2-0.4,0.6-0.4,0.9c-0.1,0.4-0.3,0.7-0.7,0.9h-0.1
	c-0.3,0.1-0.5,0-0.7-0.2c-0.7-0.6-1.1-1.4-1.2-2.2c-0.2-1-0.2-1.9-0.1-2.9c0.1-1,0.3-2,0.5-3c0.1-0.7,0.6-1.3,1.2-1.7
	c0.8-0.7,1.8-1.1,2.8-1.5c0.5-0.2,1-0.4,1.5-0.5c0,0,0,0,0.1,0l0,0c0.1,0,0.1,0,0.1,0c2-0.6,4.1-1,6.1-1.4c0.9-0.2,1.8-0.3,2.8-0.4
	c0.1,0,0.2-0.1,0.2-0.2c0-0.7,0.2-1.3,0.7-1.8c0.4-0.4,0.9-0.8,1.5-0.8c0.6,0,1,0.2,1.5,0.5c0.1,0,0.1,0.1,0.2,0.1
	c1.5,0,3,0,4.5-0.4c0.6-0.1,1.1-0.3,1.7-0.5C281-0.5,281.2-0.3,281.5-0.2z M277.2,8.8C277.2,8.8,277.1,8.7,277.2,8.8L277.2,8.8
	c0-0.2-0.1-0.2-0.2-0.3l0,0c0,0,0,0,0,0.1v0.1l0,0l0,0c0,0.1,0,0.1,0,0.2c0.3,1.3,0.3,2.7,0.3,4c0,0.1,0,0.2-0.1,0.2
	c-0.1,0-0.1-0.1-0.1-0.2c0-0.6,0-1.2-0.1-1.8c-0.1-1.2-0.3-2.3-0.7-3.4c-0.3-0.7-0.6-1.4-1-2c0,0,0,0-0.1,0l0,0
	c0-0.2-0.1-0.2-0.2-0.3c-0.4-0.6-0.8-1.1-1.3-1.6c-0.3-0.3-0.7-0.6-1.2-0.7c-0.4,0-0.7-0.1-1.1-0.1c-0.7,0-1.5,0.1-2.2,0.2
	c-1.3,0.2-2.6,0.4-3.8,0.6c-1.9,0.4-3.8,0.8-5.7,1.5c-0.8,0.3-1.6,0.7-2.3,1.2c-0.6,0.4-1.1,0.9-1.1,1.7c-0.2,0.6-0.3,1.2-0.4,1.8
	c-0.2,1-0.3,2.1-0.2,3.1c0,0.3,0.1,0.6,0.2,0.9c0.2,0.6,0.5,1.2,1,1.6c0.2,0.2,0.3,0.2,0.5,0c0.2-0.1,0.2-0.3,0.3-0.5
	c0.3-1.2,1.2-1.8,2.4-1.5c0.4,0.1,0.7,0.3,1.1,0.4c0.4,0.1,0.9,0.3,1.3,0.2c0.6-0.1,1.1-0.4,1.6-0.8c0.3-0.2,0.5-0.5,0.7-0.8
	c0.1-0.2,0.1-0.3-0.1-0.3c-0.2-0.1-0.4,0.1-0.6,0.1l0,0c0.2-0.3,0.6-0.4,0.9-0.2c0.2,0.1,0.3,0.2,0.4,0.3c0.4,0.5,0.5,1,0.6,1.6
	c-0.2-0.3-0.3-0.6-0.4-0.8c-0.2-0.3-0.3-0.6-0.6-0.8c0,0.2,0,0.3,0,0.4c0,0.5,0,1-0.1,1.5c-0.2,1.1-0.7,1.9-1.7,2.4
	c-0.6,0.3-1.3,0.4-2,0.4c-0.2,0-0.5,0-0.7,0c0,0,0,0,0,0.1c0.3,0.5,0.6,1,1,1.4c0.9,1,2,1.8,3.3,2.5c1.2,0.6,2.5,1,3.8,1.3
	c0.8,0.2,1.7,0.3,2.5,0.3c1,0,1.9,0,2.9-0.1c0.5-0.1,1-0.2,1.4-0.4c0.6-0.3,0.9-0.8,1.2-1.4c0.4-0.7,0.6-1.5,0.6-2.4
	c0,0.1,0.1,0.1,0.1,0.2c0.1,0.6,0.1,1.2-0.1,1.7c-0.2,0.8-0.6,1.6-1.3,2.1c-0.1,0.1-0.1,0.1,0,0.2c0.5,0.6,1.1,1.1,1.7,1.5
	c0.1,0.1,0.1,0,0.2,0c0.5-0.4,1.1-0.7,1.7-0.9c0.5-0.2,1-0.4,1.5-0.6c0.2,0,0.3,0,0.4,0.2c0.1,0.1,0,0.3-0.1,0.4
	c-0.1,0.1-0.2,0.1-0.3,0.1c-0.8,0.3-1.5,0.6-2.2,1l0,0l0,0c-0.1,0-0.1,0-0.2,0.1c-0.2,0.1-0.5,0.3-0.7,0.5c-1,0.7-1.8,1.6-2.2,2.8
	c-0.3,0.9-0.5,1.8-0.6,2.8s-0.1,2.1,0.1,3.1c0,0.2,0.1,0.5,0.2,0.7c0.2,0.5,0.4,0.6,0.9,0.6h0.1c0.1,0,0.2,0,0.2-0.1
	c0.1-0.2,0.2-0.3,0.4-0.3c0.4-0.1,0.7-0.1,1.1,0.1c0.1,0,0.2,0.1,0.2,0.2c0,0.3,0.2,0.3,0.4,0.2c0.1,0,0.3,0,0.4,0s0.1,0,0.2-0.1
	c0.2-0.4,0.6-0.5,1.1-0.5c0.3,0,0.5,0.1,0.6,0.4c0,0,0,0.1,0.1,0.1c0.2,0,0.4,0,0.6-0.1c0.1,0,0.1-0.2,0.1-0.3v-0.1
	c0.2-0.4,0.8-0.6,1.3-0.6c0.2,0,0.3,0.1,0.4,0.3c0.1,0.3,0.1,0.3,0.4,0.2c0,0,0.1,0,0.1-0.1c0.2-0.1,0.2-0.2,0.2-0.4
	c-0.4-1.3-0.7-2.7-1.1-4c-0.1-0.2,0-0.4,0.1-0.5l0.1-0.1c0.3-0.3,0.5-0.7,0.9-0.9c1-0.7,2-1.5,2.8-2.4c0.7-0.8,1.4-1.7,1.9-2.6
	c0.2-0.3,0.2-0.3-0.2-0.4c-1.8-0.5-3.5-1.1-5.1-1.9c-1.1-0.6-2-1.2-2.8-2.1c-0.4-0.5-0.8-1.1-1-1.7c-0.2-0.6-0.2-1.1-0.4-1.7
	c-0.3-1.8-0.8-3.5-1.5-5.2c-0.2-0.4-0.3-0.8-0.6-1.2C277.2,8.9,277.2,8.8,277.2,8.8L277.2,8.8L277.2,8.8L277.2,8.8z M267.9,24.3
	L267.9,24.3c-0.1,0-0.1,0-0.2,0.1c-0.7,0.3-1.3,0.5-2,0.6c-0.3,0-0.5,0-0.7-0.2c-0.4-0.3-0.9-0.6-1.4-0.8c-0.3-0.1-0.5,0-0.7,0.2
	c-0.4,0.4-0.5,1-0.6,1.5c0,0.1-0.1,0.2-0.1,0.3c-0.6,0.5-1.1,1-1.7,1.6c-0.4,0.5-0.5,0.9-0.4,1.5c0.2,0.7,0.5,1.4,1,2
	c0.3,0.5,0.8,1,1.2,1.3c0.8,0.6,1.6,0.8,2.6,0.7c0.9-0.1,1.8-0.4,2.5-0.9c0.7-0.5,0.8-1,0.6-1.8c-0.2-0.6-0.5-1.2-0.8-1.8
	c-0.2-0.4-0.5-0.8-0.6-1.2l0,0h0.1c0.5,0.4,0.9,0.8,1.2,1.3c0.4,0.6,0.7,1.2,0.8,1.9c0,0.2,0.1,0.3,0.3,0.2c1,0,2-0.2,3-0.3
	c0.7-0.1,1.3-0.3,2-0.4c0.1,0,0.2-0.1,0.2-0.2c0-0.2,0.1-0.5,0.1-0.7c0.1-0.8,0.3-1.6,0.7-2.3c0.4-0.9,0.9-1.6,1.6-2.2
	c0.2-0.1,0.2-0.1,0-0.3c-0.3-0.2-0.6-0.4-0.8-0.7c-0.3-0.3-0.6-0.6-0.8-0.9c0-0.1-0.1-0.1-0.2-0.1c-0.7,0.3-1.5,0.3-2.3,0.4
	c-0.3,0-0.6,0-0.9,0c-0.4,0-0.9,0-1.3,0c-0.2,0-0.5-0.1-0.7,0C269.1,23.6,268.5,23.9,267.9,24.3C267.9,24.2,267.9,24.3,267.9,24.3z
	 M261.2,16.5c0.3,0,0.6,0,0.9-0.1c0.6-0.2,1.1-0.5,1.4-1.1c0.1-0.2,0.1-0.2-0.1-0.3c-0.1,0-0.3,0-0.4,0
	C262,15.2,261.6,15.8,261.2,16.5z M283.1,35.2c0-0.2,0-0.4-0.1-0.5c-0.1-0.5-0.3-0.6-0.7-0.3l0,0c-0.2,0.1-0.2,0.3-0.2,0.5
	c0.1,0.3,0.2,0.5,0.5,0.7c0.1,0.1,0.2,0.2,0.4,0.1C283.1,35.6,283.1,35.4,283.1,35.2C283.1,35.3,283.1,35.3,283.1,35.2z M277.8,35.2
	c0-0.4,0-0.5-0.4-0.5h-0.1c-0.4,0-0.5,0.2-0.4,0.6c0.1,0.3,0.2,0.5,0.4,0.7c0.2,0.2,0.3,0.2,0.4-0.1
	C277.8,35.7,277.8,35.4,277.8,35.2z M280.5,35.3c0-0.1,0-0.2,0-0.4s-0.1-0.3-0.3-0.2c-0.5,0-0.7,0.3-0.5,0.7
	c0.1,0.2,0.2,0.4,0.4,0.6c0.2,0.2,0.3,0.1,0.4-0.1C280.5,35.7,280.5,35.5,280.5,35.3z"/>
<path class="st8" d="M257.4,16.2c0.4-0.2,0.6-0.5,0.7-0.9c0.1-0.3,0.2-0.6,0.4-0.9c0.4-0.4,0.9-0.5,1.4-0.3c0.4,0.1,0.9,0.3,1.3,0.4
	c0.2,0,0.2,0.1,0.2,0.3c-0.1,0.6-0.3,1.1-0.9,1.5c-0.2,0.1-0.4,0.2-0.6,0.3c-0.3,0.1-0.5,0.3-0.5,0.6s0.1,0.5,0.2,0.7
	c1,1.5,2.3,2.7,3.8,3.6c1.5,0.9,3.2,1.4,4.9,1.7c0.1,0,0.2,0,0.4,0.1l0,0c-0.4,0.3-0.9,0.5-1.3,0.7c-0.6,0.3-1.3,0.5-1.9,0.6
	c-0.2,0-0.3,0-0.4-0.1c-0.5-0.3-1-0.7-1.5-0.8s-0.9,0-1.2,0.4c-0.3,0.4-0.5,0.9-0.6,1.4c0,0.3-0.2,0.4-0.4,0.6
	c-0.7-0.9-1.4-1.8-2-2.9c-1-1.8-1.6-3.8-1.9-5.8C257.5,16.9,257.5,16.6,257.4,16.2z"/>
<path class="st6" d="M289.5,22.2c-0.4,0-0.8-0.1-1.2-0.2c-2-0.5-3.9-1.2-5.7-2.4c-0.8-0.6-1.5-1.2-2.1-2.1c-0.3-0.5-0.4-1.1-0.6-1.7
	c-0.3-1.9-0.8-3.8-1.6-5.6c-0.3-0.6-0.6-1.1-1-1.6c0-0.1-0.1-0.1-0.1-0.1c-0.3-0.2-0.4-0.5-0.5-0.8c-0.3-1.1-0.8-2.2-1.5-3.1
	c-0.5-0.6-1-1.2-1.6-1.7c-0.3-0.2-0.6-0.3-0.9-0.3c-0.4-0.1-0.8-0.1-1.2-0.1c-0.1,0-0.2,0-0.1-0.2c0-0.2,0.1-0.5,0.2-0.7
	c0,0,0,0,0-0.1l0,0c0.1,0,0.2-0.1,0.3-0.2c0.3-0.3,0.6-0.4,1-0.4c0.5,0,0.9,0.2,1.3,0.5c0.7,0.5,1.2,1.1,1.7,1.8
	c1,1.4,1.7,2.9,2.3,4.5c0.2,0.4,0.3,0.9,0.6,1.3c0.3,0.4,0.5,0.7,0.7,1.1c0.9,1.4,1.5,2.8,2.1,4.3c0.2,0.7,0.5,1.4,0.7,2.1
	c0.2,0.4,0.3,0.8,0.7,1c0.6,0.5,1.3,0.9,2,1.3c0.8,0.4,1.6,0.8,2.5,1.1c0.8,0.3,1.6,0.6,2.5,0.9c0.1,0,0.2,0,0.2-0.1
	c0-0.2,0.1-0.5,0.1-0.7c0.1,0,0.1,0,0.2,0c-0.1,0.4-0.3,0.8-0.4,1.2C289.8,21.6,289.7,21.9,289.5,22.2z"/>
<path class="st8" d="M280.7-0.5c-0.5,0.2-1.1,0.4-1.7,0.5c-1.5,0.3-3,0.4-4.5,0.4c-0.1,0-0.1,0-0.2-0.1c-0.5-0.3-0.9-0.5-1.5-0.5
	c-0.6,0-1.1,0.3-1.5,0.8c-0.5,0.5-0.7,1.1-0.7,1.8c0,0.1,0,0.2-0.2,0.2c-0.9,0.1-1.9,0.2-2.8,0.4c-2.1,0.3-4.1,0.8-6.1,1.4h-0.1
	c0.2-0.3,0.4-0.5,0.6-0.7c2.5-2.7,5.6-4.4,9.3-5.1c3.2-0.6,6.3-0.3,9.3,0.9C280.5-0.6,280.6-0.6,280.7-0.5z"/>
<path class="st7" d="M290.3,20.1c-0.1,0-0.1-0.1-0.2,0c-0.1,0-0.1-0.1-0.2-0.1c-2.1-0.7-4.1-1.5-6-2.5c-0.3-0.1-0.5-0.3-0.7-0.5
	c-0.3-0.4-0.5-0.7-0.7-1.1c-0.2-0.5-0.4-1.1-0.5-1.6c-0.4-1.3-0.9-2.6-1.6-3.8c-0.2-0.4-0.6-0.8-0.8-1.2c0.2,0.1,0.3,0.2,0.4,0.4
	c0.8,0.9,1.4,2,1.9,3.2c0.4,0.9,0.7,1.8,1,2.6c0.2,0.5,0.4,0.9,0.8,1.3c0.1,0.1,0.3,0.2,0.4,0.3c1.3,0.7,2.6,1.2,4,1.7
	c0.8,0.3,1.7,0.5,2.6,0.8C290.4,19.6,290.4,19.8,290.3,20.1C290.3,20,290.3,20,290.3,20.1L290.3,20.1z"/>
<path class="st8" d="M271.1,31.6c0.9-0.1,1.8-0.3,2.7-0.5c0.1,0,0.3-0.1,0.4-0.1c0,0.3,0,0.6,0,0.9
	C273.1,31.8,272.1,31.7,271.1,31.6z"/>
<path class="st8" d="M286,3c-0.1,0-0.2-0.1-0.2-0.2C285.9,2.8,285.9,2.9,286,3z"/>
<path class="st8" d="M286.5,3.5c-0.1-0.1-0.1-0.1-0.2-0.2C286.4,3.3,286.5,3.4,286.5,3.5z"/>
<path class="st8" d="M286.1,3.1C286.1,3.1,286,3.1,286.1,3.1C286.1,3,286.1,3.1,286.1,3.1z"/>
<path class="st8" d="M286,3L286,3L286,3z"/>
<path class="st8" d="M285.8,2.8L285.8,2.8C285.8,2.7,285.8,2.8,285.8,2.8z"/>
<path class="st8" d="M285.7,2.8C285.7,2.7,285.7,2.7,285.7,2.8C285.7,2.7,285.7,2.7,285.7,2.8z"/>
<path class="st8" d="M285.6,2.6L285.6,2.6L285.6,2.6z"/>
<path class="st6" d="M290.3,20.1C290.3,20,290.3,20,290.3,20.1C290.3,20,290.3,20.1,290.3,20.1z"/>
<path class="st8" d="M285.6,2.6L285.6,2.6L285.6,2.6z"/>
<path class="st8" d="M285.7,2.7C285.7,2.7,285.6,2.7,285.7,2.7C285.6,2.7,285.7,2.7,285.7,2.7z"/>
<path class="st8" d="M285.7,2.7L285.7,2.7L285.7,2.7z"/>
<path class="st8" d="M261.3,4.2C261.3,4.3,261.3,4.3,261.3,4.2C261.3,4.3,261.3,4.2,261.3,4.2z"/>
<path class="st8" d="M286.7,3.7L286.7,3.7L286.7,3.7z"/>
<path class="st8" d="M286.7,3.7C286.7,3.7,286.6,3.6,286.7,3.7C286.7,3.6,286.7,3.6,286.7,3.7z"/>
<path class="st8" d="M286.6,3.6L286.6,3.6L286.6,3.6z"/>
<path class="st8" d="M286.6,3.6L286.6,3.6L286.6,3.6z"/>
<path class="st8" d="M286.6,3.6C286.5,3.5,286.5,3.5,286.6,3.6C286.5,3.5,286.6,3.5,286.6,3.6z"/>
<path class="st8" d="M286.5,3.5L286.5,3.5L286.5,3.5z"/>
<path class="st8" d="M286.3,3.3L286.3,3.3L286.3,3.3z"/>
<path class="st8" d="M286.3,3.3C286.3,3.3,286.2,3.2,286.3,3.3C286.3,3.2,286.3,3.2,286.3,3.3z"/>
<path class="st8" d="M286.2,3.2L286.2,3.2L286.2,3.2z"/>
<path class="st8" d="M286.2,3.2L286.2,3.2L286.2,3.2z"/>
<path class="st8" d="M286.2,3.1C286.1,3.1,286.1,3.1,286.2,3.1C286.1,3.1,286.2,3.1,286.2,3.1z"/>
<path class="st8" d="M286.1,3.1L286.1,3.1L286.1,3.1z"/>
<path class="st9" d="M279.5,9.1c0.3,0.4,0.6,0.8,0.8,1.2c0.7,1.2,1.2,2.5,1.6,3.8c0.2,0.5,0.3,1.1,0.5,1.6c0.2,0.4,0.4,0.8,0.7,1.1
	c0.2,0.2,0.5,0.4,0.7,0.5c1.9,1,3.9,1.9,6,2.5c0.1,0,0.1,0.1,0.2,0.1c0,0.3-0.1,0.5-0.1,0.7c0,0.1-0.1,0.2-0.2,0.1
	c-0.8-0.3-1.7-0.6-2.5-0.9c-0.8-0.3-1.7-0.7-2.5-1.1c-0.7-0.4-1.4-0.8-2-1.3c-0.3-0.3-0.5-0.6-0.7-1c-0.3-0.7-0.5-1.4-0.7-2.1
	c-0.5-1.5-1.2-3-2.1-4.3c-0.2-0.4-0.5-0.7-0.7-1.1c-0.3-0.4-0.4-0.9-0.6-1.3c-0.6-1.6-1.4-3.1-2.3-4.5c-0.5-0.7-1-1.3-1.7-1.8
	c-0.4-0.3-0.8-0.5-1.3-0.5c-0.4,0-0.7,0.2-1,0.4c-0.1,0.1-0.1,0.2-0.3,0.2c0.2-0.8,1.2-1.3,2-1c0.6,0.2,1.2,0.6,1.7,1
	c1.2,1.1,2,2.4,2.7,3.8c0.2,0.5,0.4,1,0.6,1.5c0,0.1,0.1,0.2,0.1,0.3l0,0v0.1c0.2,0.6,0.5,1.1,0.7,1.6c0,0,0,0.1,0.1,0.1v0.1l0,0
	C279.4,9,279.4,9,279.5,9.1L279.5,9.1C279.4,9.1,279.5,9.1,279.5,9.1L279.5,9.1z"/>
<path class="st10" d="M278.5,7.1c-0.1-0.1-0.1-0.2-0.1-0.3c0,0,0,0,0.1,0C278.5,6.9,278.5,7,278.5,7.1z"/>
<path class="st10" d="M278.5,7.2V7.1C278.5,7.2,278.5,7.2,278.5,7.2z"/>
<path class="st7" d="M279.5,9.1C279.5,9.1,279.4,9.1,279.5,9.1C279.5,9,279.5,9.1,279.5,9.1z"/>
<path class="st7" d="M279.4,9C279.3,9,279.3,9,279.4,9L279.4,9z"/>
<path class="st7" d="M279.4,9L279.4,9L279.4,9z"/>
<path class="st10" d="M255.9,14c-0.1-0.3-0.1-0.6-0.2-0.9c-0.1-1,0-2.1,0.2-3.1c0.1-0.6,0.2-1.2,0.4-1.8c0.1,0,0.2-0.1,0.2-0.2
	c0.8-0.6,1.7-1,2.6-1.3c1.3-0.4,2.6-0.7,3.9-1c0.6-0.1,1.2-0.2,1.9-0.3c0.5-0.1,1.1-0.1,1.6-0.2c0.4,0,0.8-0.1,1.2-0.1
	c0.5,0,1-0.1,1.5-0.1c0.4,0,0.8-0.1,1.2-0.1c0.6,0,1.3-0.1,1.9-0.1c0.8,0,1.6,0.2,2.3,0.6c0.2,0.1,0.3,0.2,0.5,0.3l0,0
	c0,0,0,0.1,0.1,0c0.4,0.6,0.7,1.3,1,2c0.4,1.1,0.6,2.2,0.7,3.4c0.1,0.6,0.1,1.2,0.1,1.8c0,0.1,0,0.2,0.1,0.2s0.1-0.1,0.1-0.2
	c0.1-1.4,0-2.7-0.3-4c0-0.1,0-0.1,0-0.2c0,0,0.1,0,0.1,0.1l0,0l0,0l0,0l0,0l0,0v0.1c0.3,0.4,0.4,0.8,0.6,1.2
	c0.7,1.7,1.2,3.4,1.5,5.2c0.1,0.6,0.2,1.2,0.4,1.7c0.2,0.6,0.6,1.2,1,1.7c0.8,0.9,1.8,1.6,2.8,2.1c1.6,0.9,3.4,1.5,5.1,1.9
	c0.4,0.1,0.4,0.1,0.2,0.4c-0.6,0.9-1.2,1.8-1.9,2.6c-0.8,0.9-1.8,1.7-2.8,2.4c-0.4,0.2-0.6,0.6-0.9,0.9l-0.1,0.1
	c-0.2,0.1-0.2,0.3-0.1,0.5c0.4,1.3,0.7,2.7,1.1,4c0.1,0.2,0,0.3-0.2,0.4c0,0-0.1,0-0.1,0.1c-0.3,0.1-0.3,0.1-0.4-0.2
	c-0.1-0.2-0.2-0.3-0.4-0.3c-0.4-0.1-1,0.2-1.3,0.6v0.1c0,0.1,0,0.3-0.1,0.3c-0.2,0-0.4,0-0.6,0.1c0,0-0.1,0-0.1-0.1
	c-0.1-0.3-0.3-0.4-0.6-0.4c-0.4,0-0.9,0.1-1.1,0.5c0,0.1-0.1,0.1-0.2,0.1c-0.1,0-0.3,0-0.4,0c-0.2,0-0.4,0-0.4-0.2
	c0-0.1-0.1-0.1-0.2-0.2c-0.4-0.2-0.7-0.2-1.1-0.1c-0.2,0.1-0.3,0.2-0.4,0.3c0,0.1-0.1,0.1-0.2,0.1H276c-0.5,0-0.7-0.1-0.9-0.6
	c-0.1-0.2-0.2-0.4-0.2-0.7c0.2,0,0.4-0.1,0.7-0.1c0.6-0.1,1.2-0.1,1.8,0c0.2,0,0.2-0.1,0.3-0.2c0-0.1,0-0.2,0-0.3
	c-0.1-0.3-0.4-0.5-0.7-0.7c-0.4-0.2-0.6-0.6-0.7-1c-0.2-0.8-0.3-1.5-0.2-2.3c0.2-1.1,0.6-2.1,1.2-3c0.3-0.5,0.7-1,1.1-1.5l0,0l0,0
	c0.7-0.4,1.4-0.7,2.2-1c0.1,0,0.2-0.1,0.3-0.1c0.1-0.1,0.2-0.3,0.1-0.4c-0.1-0.2-0.3-0.2-0.4-0.2c-0.5,0.1-1,0.4-1.5,0.6
	c-0.6,0.3-1.1,0.6-1.7,0.9c-0.1,0.1-0.1,0.1-0.2,0c-0.6-0.4-1.2-0.9-1.7-1.5c-0.1-0.1-0.1-0.1,0-0.2c0.7-0.5,1.1-1.3,1.3-2.1
	c0.2-0.6,0.2-1.2,0.1-1.7c0-0.1,0-0.1-0.1-0.2c0,0.9-0.2,1.7-0.6,2.4c-0.3,0.5-0.6,1.1-1.2,1.4c-0.5,0.2-0.9,0.4-1.4,0.4
	c-1,0.1-1.9,0.1-2.9,0.1c-0.9,0-1.7-0.1-2.5-0.3c-1.3-0.2-2.6-0.6-3.8-1.3c-1.2-0.6-2.3-1.5-3.3-2.5c-0.4-0.4-0.8-0.9-1-1.4
	c0,0,0,0,0-0.1c0.2,0,0.5,0,0.7,0h0.1c0.4,0,0.7,0,1.1,0c0.5,0,1-0.1,1.4-0.3c0.7-0.3,1.2-0.7,1.5-1.5c0.1-0.5,0.1-1,0.1-1.4
	c-0.1-0.4-0.1-0.8-0.3-1.1c0-0.1,0-0.3,0-0.4c0.3,0.2,0.5,0.5,0.6,0.8c0.2,0.3,0.3,0.6,0.4,0.8c-0.1-0.6-0.3-1.1-0.6-1.6
	c-0.1-0.1-0.2-0.3-0.4-0.3c-0.3-0.2-0.7-0.1-0.9,0.2l0,0l0,0l0,0c0.2,0,0.4-0.2,0.6-0.1c0.2,0.1,0.3,0.1,0.1,0.3
	c-0.2,0.3-0.4,0.6-0.7,0.8c-0.5,0.1-1.1,0.1-1.6,0.1c-0.3,0-0.7-0.1-1-0.2c-1-0.4-1.9-0.6-2.9-0.4c0.1-0.4-0.2-0.6-0.5-0.9l0,0l0,0
	l0,0l0,0l0,0c0,0.1-0.1,0.1-0.1,0.1c-0.3,0.2-0.4,0.8-0.1,1c-0.3,0.1-0.5,0.4-0.7,0.7C256.7,14.1,256.3,14.2,255.9,14
	C256,14.1,256,14.1,255.9,14z M256.8,12.1L256.8,12.1L256.8,12.1L256.8,12.1c0,0.1,0,0.1,0,0.2c-0.3,0.2-0.3,0.4-0.3,0.7
	c0,0.2,0.2,0.3,0.3,0.4c0.4,0,0.7-0.4,0.5-0.7C257.2,12.4,257,12.2,256.8,12.1L256.8,12.1z M264.8,10.4c0-0.4-0.2-1.2-0.4-1.6
	c-0.3-0.4-0.7-0.5-1.1-0.2c-0.4,0.3-0.5,0.7-0.6,1.1c0,0.1,0,0.1,0.1,0.1c0.1,0,0.2,0,0.3-0.1s0.1-0.2,0.2-0.4
	c0.3-0.4,0.7-0.5,1.1-0.1C264.5,9.6,264.7,10,264.8,10.4z M265.4,8.7c0-0.5-0.1-1.1-0.4-1.5c-0.5-0.8-1.3-0.7-1.9-0.2
	c0,0-0.1,0.1,0,0.1c0,0.1,0.1,0,0.1,0c0.1,0,0.2-0.1,0.3-0.1c0.5-0.2,0.9-0.1,1.2,0.2c0.1,0.1,0.2,0.3,0.3,0.4
	C265.2,8,265.3,8.3,265.4,8.7z"/>
<path class="st10" d="M267.9,24.2c0.6-0.3,1.2-0.6,1.7-1c0.2-0.1,0.5,0,0.7,0c0.4,0,0.9,0,1.3,0c0.3,0,0.6,0,0.9,0
	c0.8-0.1,1.5-0.1,2.3-0.4c0.1,0,0.1,0,0.2,0.1c0.2,0.3,0.5,0.7,0.8,0.9c0.3,0.2,0.5,0.5,0.8,0.7c0.2,0.1,0.2,0.1,0,0.3
	c-0.7,0.6-1.3,1.3-1.6,2.2c-0.3,0.7-0.5,1.5-0.7,2.3c0,0.2-0.1,0.5-0.1,0.7s-0.1,0.2-0.2,0.2c-0.7,0.2-1.3,0.3-2,0.4
	c-1,0.2-2,0.3-3,0.3c-0.2,0-0.2-0.1-0.3-0.2c-0.1-0.7-0.4-1.3-0.8-1.9c-0.4-0.5-0.8-0.9-1.2-1.3c0,0-0.1-0.1-0.1,0l0,0l0,0l0,0
	c0.1,0.4,0.4,0.8,0.6,1.2c0.3,0.6,0.6,1.1,0.8,1.8c0.2,0.8,0,1.3-0.6,1.8c-0.7,0.5-1.6,0.9-2.5,0.9c-1,0.1-1.8-0.1-2.6-0.7
	c-0.5-0.4-0.9-0.8-1.2-1.3v-0.1c-0.1-0.5-0.1-1,0.1-1.6c0.2-1,0.8-1.8,1.6-2.5c0.2-0.2,0.2-0.3,0.3-0.5c0-0.5,0.4-0.8,0.8-0.8
	c0.5,0.1,1,0.1,1.5,0c0.7-0.1,1.3-0.3,1.9-0.7C267.5,24.8,267.7,24.6,267.9,24.2C267.9,24.3,267.9,24.3,267.9,24.2
	C267.9,24.3,267.9,24.2,267.9,24.2z"/>
<path class="st6" d="M275.2,5.7c-0.2-0.1-0.3-0.2-0.5-0.3c-0.7-0.4-1.5-0.6-2.3-0.6c-0.6,0-1.3,0.1-1.9,0.1c-0.4,0-0.8,0.1-1.2,0.1
	c-0.5,0-1,0.1-1.5,0.1c-0.4,0-0.8,0.1-1.2,0.1c-0.5,0.1-1.1,0.1-1.6,0.2c-0.6,0.1-1.3,0.2-1.9,0.3c-1.3,0.2-2.6,0.5-3.9,1
	c-0.9,0.3-1.8,0.7-2.6,1.3c-0.1,0.1-0.1,0.2-0.2,0.2c0.1-0.8,0.6-1.3,1.1-1.7c0.7-0.5,1.5-0.9,2.3-1.2c1.8-0.7,3.7-1.1,5.7-1.5
	c1.3-0.3,2.5-0.5,3.8-0.6c0.7-0.1,1.5-0.2,2.2-0.2c0.4,0,0.7,0,1.1,0.1c0.5,0.1,0.8,0.3,1.2,0.7c0.5,0.5,0.9,1,1.3,1.6
	C275,5.4,275.2,5.5,275.2,5.7z"/>
<path class="st6" d="M278.6,24.4c-0.4,0.5-0.8,0.9-1.1,1.5c-0.6,0.9-1,1.9-1.2,3c-0.1,0.8-0.1,1.6,0.2,2.3c0.1,0.4,0.4,0.7,0.7,1
	c0.3,0.2,0.6,0.4,0.7,0.7c0,0.1,0.1,0.2,0,0.3s-0.1,0.2-0.3,0.2c-0.6,0-1.2,0-1.8,0c-0.2,0-0.4,0.1-0.7,0.1c-0.2-1-0.2-2-0.1-3.1
	c0.1-1,0.3-1.9,0.6-2.8c0.4-1.2,1.2-2.1,2.2-2.8c0.2-0.2,0.5-0.3,0.7-0.5C278.5,24.4,278.5,24.3,278.6,24.4z"/>
<path class="st6" d="M267.9,24.3c-0.2,0.3-0.4,0.5-0.7,0.7c-0.6,0.4-1.2,0.6-1.9,0.7c-0.5,0.1-1,0.1-1.5,0c-0.4-0.1-0.8,0.3-0.8,0.8
	c0,0.2-0.1,0.4-0.3,0.5c-0.8,0.7-1.3,1.5-1.6,2.5c-0.1,0.5-0.1,1-0.1,1.6v0.1c-0.5-0.6-0.8-1.3-1-2c-0.1-0.6,0-1.1,0.4-1.5
	c0.5-0.6,1.1-1.1,1.7-1.6c0.1-0.1,0.1-0.2,0.1-0.3c0.1-0.6,0.2-1.1,0.6-1.5c0.2-0.3,0.4-0.3,0.7-0.2c0.5,0.2,1,0.4,1.4,0.8
	c0.2,0.2,0.4,0.2,0.7,0.2c0.7-0.1,1.4-0.3,2-0.6C267.8,24.3,267.8,24.3,267.9,24.3z"/>
<path class="st6" d="M255.9,14c0.1,0,0.1,0.1,0.2,0.1c0.3,0.2,0.8,0.1,1-0.3c0.2-0.3,0.4-0.6,0.7-0.7c0.3,0.1,0.4,0,0.7-0.3
	c1-0.2,2,0,2.9,0.4c0.3,0.1,0.6,0.2,1,0.2c0.5,0,1.1,0,1.6-0.1c-0.5,0.4-1,0.7-1.6,0.8c-0.4,0.1-0.9-0.1-1.3-0.2
	c-0.4-0.1-0.7-0.3-1.1-0.4c-1.1-0.3-2,0.3-2.4,1.5c-0.1,0.2-0.1,0.4-0.3,0.5c-0.2,0.1-0.3,0.1-0.5,0C256.4,15.2,256.1,14.7,255.9,14
	z"/>
<path class="st6" d="M264.8,12.8c0.2,0.4,0.2,0.7,0.3,1.1c0.1,0.5,0.1,1-0.1,1.4c-0.2,0.8-0.8,1.2-1.5,1.5c-0.5,0.2-0.9,0.2-1.4,0.3
	c-0.4,0-0.7,0-1.1,0h-0.1c0.7,0,1.4-0.1,2-0.4c1-0.5,1.6-1.3,1.7-2.4C264.8,13.8,264.9,13.3,264.8,12.8z"/>
<path class="st9" d="M261.2,16.5c0.4-0.7,0.9-1.3,1.7-1.5c0.1,0,0.3,0,0.4,0c0.3,0,0.3,0,0.1,0.3c-0.3,0.6-0.8,0.9-1.4,1.1
	C261.8,16.4,261.5,16.5,261.2,16.5z"/>
<path class="st6" d="M277.1,8.7c0,0-0.1,0-0.1-0.1l0,0l0,0V8.5l0,0C277,8.6,277.1,8.6,277.1,8.7z"/>
<path class="st6" d="M275.2,5.7C275.2,5.8,275.2,5.7,275.2,5.7L275.2,5.7z"/>
<path class="st6" d="M277.2,8.9L277.2,8.9C277.2,8.8,277.2,8.9,277.2,8.9z"/>
<path class="st9" d="M271.4,1.5C271.4,1.6,271.4,1.6,271.4,1.5C271.4,1.6,271.4,1.5,271.4,1.5z"/>
<path class="st6" d="M276.9,8.5L276.9,8.5C276.9,8.5,277,8.5,276.9,8.5C277,8.5,277,8.5,276.9,8.5z"/>
<path class="st6" d="M278.6,24.3L278.6,24.3L278.6,24.3z"/>
<path class="st6" d="M267.9,24.2C267.9,24.2,267.9,24.3,267.9,24.2C267.9,24.3,267.9,24.2,267.9,24.2z"/>
<path class="st6" d="M277.2,8.8L277.2,8.8L277.2,8.8z"/>
<path class="st6" d="M277.2,8.8C277.1,8.8,277.1,8.8,277.2,8.8C277.1,8.7,277.2,8.8,277.2,8.8z"/>
<path class="st10" d="M277,8.6L277,8.6L277,8.6z"/>
<path class="st7" d="M264.8,10.4c-0.1-0.4-0.3-0.8-0.5-1.1c-0.3-0.4-0.8-0.4-1.1,0.1c-0.1,0.1-0.1,0.2-0.2,0.4
	c-0.1,0.1-0.2,0.1-0.3,0.1c-0.1,0-0.1-0.1-0.1-0.1c0.1-0.4,0.2-0.8,0.6-1.1c0.4-0.3,0.8-0.2,1.1,0.2C264.6,9.1,264.8,9.9,264.8,10.4
	z"/>
<path class="st7" d="M265.4,8.7c-0.1-0.4-0.2-0.7-0.4-1.1c-0.1-0.2-0.2-0.3-0.3-0.4c-0.3-0.3-0.7-0.4-1.2-0.2
	c-0.1,0-0.2,0.1-0.3,0.1h-0.1V7c0.6-0.5,1.4-0.6,1.9,0.2C265.3,7.6,265.4,8.2,265.4,8.7z"/>
<path class="st7" d="M256.8,12.1c0.2,0.1,0.3,0.3,0.4,0.5c0.1,0.3-0.1,0.7-0.5,0.7c-0.2,0-0.3-0.2-0.3-0.4c0-0.3,0-0.5,0.3-0.7
	C256.8,12.2,256.8,12.2,256.8,12.1L256.8,12.1z"/>
<path class="st7" d="M258.4,12.9c-0.2,0.3-0.4,0.4-0.7,0.3c-0.3-0.2-0.2-0.8,0.1-1c0.1,0,0.1-0.1,0.1-0.1l0,0
	C258.2,12.3,258.5,12.5,258.4,12.9z"/>
<path class="st7" d="M257.9,12L257.9,12L257.9,12L257.9,12L257.9,12z"/>
<path class="st7" d="M263.9,12.3L263.9,12.3L263.9,12.3L263.9,12.3L263.9,12.3z"/>
<path class="st7" d="M256.8,12.1L256.8,12.1L256.8,12.1L256.8,12.1L256.8,12.1z"/>
<path class="st7" d="M258,12.1C258,12.1,257.9,12.1,258,12.1C257.9,12,257.9,12,258,12.1C257.9,12.1,258,12.1,258,12.1L258,12.1z"/>
<path class="st7" d="M256.8,12.1L256.8,12.1L256.8,12.1z"/>
<path class="st7" d="M266.6,27.5L266.6,27.5L266.6,27.5L266.6,27.5L266.6,27.5z"/>
<circle class="st11" cx="266.7" cy="121.3" r="17.9"/>
<g id="Layer_2">
	
		<linearGradient id="SVGID_3_" gradientUnits="userSpaceOnUse" x1="265.95" y1="-111.4875" x2="265.95" y2="-137.013" gradientTransform="matrix(1 0 0 1 0 252)">
		<stop  offset="0" style="stop-color:#FCEE23"/>
		<stop  offset="1" style="stop-color:#F15B2B"/>
	</linearGradient>
	<path class="st12" d="M270.1,125.2c-0.1-0.1-0.2-0.1-0.4-0.1h-0.1c-0.1,0.1-0.2,0.1-0.3,0.1c-0.1,0-0.2,0.1-0.4,0.1
		c-0.1,0-0.1,0-0.2,0h-0.1h-0.1h-0.1h-0.1l0,0l0,0l0,0c0,0,0,0-0.1,0h-0.1c-0.3,0-0.6-0.1-0.8-0.2c-0.3-0.1-0.5-0.3-0.8-0.5
		c-0.3-0.2-0.4-0.5-0.6-0.8c-0.2-0.3-0.3-0.6-0.3-0.9c0-0.2,0-0.3,0-0.5v-0.1l0,0l0,0l0,0c0,0,0,0,0-0.1s0-0.2,0-0.3
		c0.1-0.7,0.5-1.5,1.1-2c0.1-0.1,0.3-0.3,0.5-0.4c0.2-0.1,0.3-0.2,0.5-0.3s0.4-0.2,0.6-0.2c0.2-0.1,0.4-0.1,0.6-0.1
		c0.1,0,0.2,0,0.3,0c0,0,0,0,0.1,0h0.1h0.1l0,0l0,0h0.1c0.2,0,0.4,0,0.6,0.1c0.4,0.1,0.8,0.3,1.2,0.5c0.8,0.4,1.4,1.1,1.8,1.9
		c0.2,0.4,0.4,0.8,0.4,1.3c0,0.1,0,0.2,0,0.3v0.1v0.1v0.1v0.1v0.1v0.1c0,0.1,0,0.1,0,0.2c0,0.1,0,0.3,0,0.4c0,0.1,0,0.2-0.1,0.4
		c0,0.1-0.1,0.2-0.1,0.4c-0.1,0.2-0.1,0.5-0.2,0.7c-0.2,0.5-0.4,0.9-0.7,1.3c-0.6,0.8-1.4,1.5-2.3,1.9c-0.5,0.2-0.9,0.4-1.4,0.4
		c-0.2,0-0.5,0.1-0.7,0.1l0,0l0,0H268h-0.1h-0.1l0,0l0,0c-0.1,0-0.3,0-0.4,0c-0.5,0-1.1-0.1-1.6-0.3c-0.5-0.1-1-0.4-1.5-0.6
		c-0.9-0.5-1.8-1.2-2.4-2c-0.3-0.4-0.6-0.9-0.9-1.3c-0.2-0.5-0.4-1-0.6-1.5c-0.1-0.5-0.2-1-0.3-1.5v-0.1l0,0l0,0l0,0V122l0,0l0,0
		v-0.1v-0.1l0,0l0,0l0,0c0-0.1,0-0.1,0-0.2c0-0.3,0-0.5,0.1-0.8c0-0.3,0.1-0.5,0.1-0.8c0.1-0.3,0.1-0.5,0.2-0.8
		c0.1-0.5,0.3-1,0.5-1.5c0.4-0.9,1-1.8,1.7-2.4c0.2-0.2,0.3-0.3,0.5-0.5c0.2-0.1,0.4-0.3,0.6-0.4c0.2-0.1,0.4-0.2,0.6-0.4
		c0.1-0.1,0.2-0.1,0.3-0.2c0.1,0,0.1,0,0.2-0.1c0.1,0,0.1,0,0.2-0.1c0.2-0.1,0.4-0.2,0.7-0.2c0.1,0,0.1,0,0.2-0.1c0.1,0,0.1,0,0.2,0
		c0.1,0,0.2-0.1,0.3-0.1s0.1,0,0.2,0c0.1,0,0.1,0,0.2,0s0.1,0,0.2,0h0.1h0.1c0.1,0,0.1,0,0.2,0s0.1,0,0.2,0c0.1,0,0.1,0,0.2,0h0.1
		h0.1l0,0l0,0c0.1,0,0.1,0,0.2,0h0.1l0,0l0,0l0,0c0.1,0,0.1,0,0.2,0c0.2,0,0.5,0,0.7,0c0.4,0,0.9,0.1,1.3,0.1
		c0.8,0.2,1.6,0.4,2.4,0.8c0.7,0.4,1.4,0.8,1.9,1.3l0.1,0.1l0.1,0.1c0.1,0.1,0.1,0.1,0.2,0.2c0.1,0.1,0.1,0.1,0.2,0.2
		c0.1,0.1,0.1,0.1,0.2,0.2c0.2,0.3,0.5,0.5,0.7,0.8c0.4,0.5,0.7,1,1,1.5v0.1v0.1c0,0.1,0.1,0.1,0.1,0.2c0,0.1,0.1,0.1,0.1,0.2
		c0,0.1,0.1,0.1,0.1,0.2c0.1,0.2,0.2,0.4,0.3,0.7s0.2,0.6,0.3,0.9c0,0.1,0.1,0.2,0.2,0.2l0,0c0.1,0,0.2-0.1,0.2-0.2c0-0.3,0-0.6,0-1
		c0-0.5-0.1-1-0.3-1.6c-0.2-0.6-0.4-1.2-0.7-1.9c-0.3-0.7-0.8-1.4-1.3-2c-0.2-0.3-0.5-0.5-0.7-0.8c0.4-1.6-0.5-2.9-0.5-2.9
		c-1.5-0.1-2.4,0.5-2.8,0.7c-0.1,0-0.1-0.1-0.2-0.1c-0.3-0.1-0.5-0.2-0.8-0.3c-0.3-0.1-0.5-0.2-0.8-0.2c-0.3-0.1-0.6-0.1-0.9-0.2
		c-0.1,0-0.1,0-0.2,0c-0.7-2.1-2.5-2.9-2.5-2.9c-2.1,1.3-2.5,3.2-2.5,3.2s0,0.1,0.1,0.1c-0.1,0-0.3,0.1-0.4,0.1
		c-0.2,0-0.3,0.1-0.5,0.2c-0.2,0.1-0.3,0.1-0.5,0.2c-0.3,0.1-0.6,0.3-0.9,0.5c-0.3,0.2-0.6,0.4-0.9,0.6l0,0v-0.1
		c-2.9-1.1-5.4,0.2-5.4,0.2c-0.2,3.1,1.2,5,1.4,5.4c-0.1,0.2-0.1,0.4-0.2,0.6c-0.2,0.7-0.4,1.4-0.5,2.1c0,0.1,0,0.2,0,0.3
		c-2.7,1.3-3.5,4-3.5,4c2.2,2.6,4.8,2.7,4.8,2.7l0,0c0.3,0.6,0.7,1.1,1.1,1.7c0.2,0.2,0.4,0.4,0.6,0.6c-0.8,2.3,0.1,4.3,0.1,4.3
		c2.5,0.1,4.1-1.1,4.4-1.4c0.2,0.1,0.5,0.2,0.7,0.2c0.8,0.2,1.5,0.3,2.3,0.3c0.2,0,0.4,0,0.6,0h0.1h0.1h0.1h0.1l0,0
		c1.2,1.7,3.2,1.9,3.2,1.9c1.7-1.7,1.5-3.5,1.5-3.5l0,0c0.3-0.2,0.6-0.5,0.9-0.7c0.6-0.5,1.1-1.1,1.5-1.8c0-0.1,0.1-0.1,0.1-0.2
		c1.7,0.1,2.8-1,2.8-1c-0.3-1.9-1.5-2.8-1.5-2.8l0,0c0-0.1,0-0.2,0-0.3c0-0.2,0-0.4,0-0.6v-0.1v-0.1l0,0l0,0v-0.1V124
		c0-0.1,0-0.1,0-0.1v-0.1v-0.1v-0.1c0-0.2-0.1-0.4-0.1-0.6c-0.2-0.7-0.5-1.4-0.8-2.1c-0.4-0.6-0.9-1.2-1.4-1.7s-1.1-0.9-1.8-1.1
		s-1.3-0.5-1.9-0.6c-0.3,0-0.7-0.1-1-0.1h-0.1l0,0l0,0h-0.1h-0.1h-0.1c-0.2,0-0.3,0-0.5,0.1c-0.7,0.1-1.3,0.4-1.8,0.7
		s-1,0.7-1.4,1.2c-0.4,0.5-0.7,1-0.9,1.5s-0.3,1.1-0.4,1.6c0,0.1,0,0.3,0,0.4v0.1v0.1c0,0.1,0,0.1,0,0.2c0,0.3,0.1,0.5,0.1,0.8
		c0.1,0.5,0.4,0.9,0.7,1.3s0.6,0.7,1,0.9s0.7,0.4,1.1,0.5s0.8,0.2,1.1,0.2h0.1c0,0,0,0,0.1,0c0,0,0,0,0.1,0h0.1l0,0l0,0
		c0,0,0,0,0.1,0h0.1h0.1c0.1,0,0.2,0,0.2-0.1c0.2-0.1,0.3-0.1,0.4-0.2c0.1-0.1,0.3-0.2,0.4-0.2c0,0,0.1,0,0.1-0.1
		C270.2,125.5,270.2,125.3,270.1,125.2L270.1,125.2z"/>
</g>
</svg>
