<svg xmlns="http://www.w3.org/2000/svg" width="20" height="20" viewBox="0 0 20 20"><filter id="a"><feGaussianBlur stdDeviation="4"/></filter><path d="M14.246 4.635l-6.091 6.091-2.4-2.4a.396.396 0 0 0-.559 0l-1.9 1.9a.396.396 0 0 0 0 .559l4.58 4.58a.396.396 0 0 0 .559 0l8.271-8.271a.396.396 0 0 0 0-.559l-1.9-1.9a.395.395 0 0 0-.56 0z" fill="#f7941d"/><path d="M15.478 1.279l-7.981 9.883-3.145-3.893c-.202-.251-.53-.251-.733 0l-2.49 3.083a.755.755 0 0 0 0 .907L7.13 18.69c.202.251.53.251.733 0L18.7 5.27a.755.755 0 0 0 0-.907L16.21 1.28c-.202-.251-.53-.251-.732-.001z" fill="#f7941d" opacity=".6" filter="url(#a)"/></svg>