<svg xmlns="http://www.w3.org/2000/svg" width="407" height="407" viewBox="153 -125 407 270"><path d="M327.97-133.001c-.7.6-1.2.2-1.8-.5s-.5-1.1.3-1.5c1-.6.9-.7 1.4-.2.7.7.8 1.5.1 2.2zm-92 295.8c-.6 1.5-1.6 1.3-3.2.7-1.5-.6-1.5-1.3-.8-2.7 1.1-1.9.9-1.8 2.1-1.3 1.6.6 2.5 1.8 1.9 3.3zm100.7 60.6c-.9-.1-1-.7-.9-1.6.2-.9.5-1.1 1.4-.9 1.2.3 1.1.2 1 .9-.1 1-.6 1.7-1.5 1.6zm26.9-40.3c-.9-.1-1-.7-.9-1.6.1-.9.5-1.1 1.4-.9 1.2.3 1.1.2 1 .9-.1 1.1-.6 1.7-1.5 1.6zm-169.1-137.3c-.7.6-1.2.2-1.8-.5s-.5-1.1.3-1.5c1-.6.9-.7 1.4-.2.6.7.7 1.6.1 2.2zm304.4 52.2c-.7.6-1.2.2-1.8-.5s-.5-1.1.3-1.5c1-.6.9-.7 1.4-.2.6.8.8 1.6.1 2.2zm-68.7 1.3c.1-.9.7-1 1.6-.9.9.1 1.1.5.9 1.4-.3 1.2-.2 1.1-.9 1-1.1-.1-1.8-.6-1.6-1.5zm-215.7-150c.1-.9.7-1 1.6-.9s1.1.5.9 1.4c-.3 1.2-.2 1.1-.9 1-1-.2-1.6-.6-1.6-1.5z" fill="#1b1b1b" stroke="#1b1b1b" stroke-miterlimit="10"/><path d="M358.87-61.701s-28.1-4.6-33.8-3.3c-5.7 1.3-14.8 3.3-17.7 5.1-2.9 1.9-3.9 2.1-9.9 6.3-6 4.1-18.1 9.1-21.7 13.3-3.6 4.3-9.5 2.2-16 13.2-6.4 11.1-4.6 9.5-8.5 18.3s-5.7 12.6-7.7 19.6c-2.1 7-7 22.2-3.3 31.5s4.1 10.3 3.1 16.3.5 12.9 4.6 20.4c4.1 7.5 6.2 11.1 11.1 17.6 4.9 6.5 21.4 13.9 24.2 16.9 2.9 3 11.1 9.4 18.9 12.1 7.7 2.6 22.7 3.9 26.9 5.4 4.1 1.5 23 7.2 34.1 2.9 11.1-4.4 34.6-14.9 40.5-24.5 6-9.5 25.1-26.1 27.6-35.1 2.6-9.1 7.4-30.2 7.7-38.9.2-8.7 2.3-4.4 1.5-15.7-.8-11.4-1.3-15.7-5.4-17-4.1-1.3-1.8-4.1-4.1-9.5s0-7-6.2-11.6-7.2-7.7-11.6-14.2c-4.4-6.4-11.5-10.5-14.2-12.2s-12.1-4.7-16.6-8.7c-4.6-4.3-23.5-8.2-23.5-8.2z" fill="#dfdfdf"/><path d="M314.87 78.899c2.3-2.2 4.4-4.8 6.2-7.5 1.4-2.1 2.3-4.5 3.7-6.6.6-.9.5-2.2.8-3.3.4-1.5 1.9-5.1.5-6.4-.6-.6-1.9-.7-2.7-.9-.5-.1-1.7 0-2-.5-.7-.9.7-1.2 1.2-1.9.8-.8.9-1.9 1.4-2.9s.6-2.4 1.2-3.3c.5.5.8-.2 1.2-.4 1.2-.6 2.7-.2 3.9-.9.9-.5 1.5-1.4 2.3-1.9 1.2-.7 1.2-1.7 1.5-2.9.2-.9.7-1.7 1-2.6.6-1.6 2.4-.9 3.7-1.5 1-.5 1.6-1.9 2.2-2.8.6-.9.5-1.8.9-2.7 1.7 1.5 3.3 3.1 4.8 4.8 1.2 1.3 3 1.8 4.2 3.1.7.8 1.2 1.7 2.1 2.2.6.4 2.3 1.2 2.8.3-.1.7-.9 1.3-1.3 1.8-.5.6-.5.7-1.4.9-1.2.3-3 .9-3.6 2.2-1.1 2.5 2.5 1.5 3.5 2.2.8.6.1 1.5.5 2.2.4.8 1.4.7 1.8 1.4-.3.7-1.2 1.2-1.8 1.8-.5.5-.9 1-1.4 1.4-.9.6-2.1 1.1-2.9 1.9-1.7 1.6-2.8 3.9-3.1 6.2-.4 3.5-2.8 6.5-4.5 9.3-.9 1.4-1.9 2.5-2.6 3.9-.6 1.2-1.1 2.5-1.2 3.9-.3 2.4.1 4.9-.5 7.2-.2 1.1-1.4 2.3-1.9 3.3-.5 1.2-1.4 1.7-2.6 1.9-2.3.4-4.8 1-6.7-.6-1-.9-1.5-2.2-2.3-3.3-.5-.9-1.2-1.5-1.8-2.2-.9-1.1-2.2-1.5-3.3-2.3-.5-.4-1.2-.9-1.7-1.2-.5-.3-1.2-.4-1.6-.8" fill="#c5c5c5"/><path d="M302.27 125.199s-5.8-1.9-6.5-4.5 1-6.6 2.8-6.8c1.8-.2 6.2-1.7 8.6-.2 2.4 1.5 7.3 4.2 7.4 4.3 0 .2-12.3 7.2-12.3 7.2z" fill="#f1f1f1"/><path d="M324.67 123.999s-8.3-5.5-11.4-6.9c-3.1-1.4-3.6-2.2-7.1-2.2s-4.5-1.4-6.2.2-2.6 3.1-2.6 3.6 0 1.9.9 2.9c.9 1.1 5.2 4.6 6.6 5.2 1.4.5 10.9 3.3 13.7 3.5 2.8.3 6.3-1 6.9-1.7.4-.7-.8-4.6-.8-4.6z" fill="#8b8b8b"/><path d="M325.77 127.199c-1.8-2.2-3.1-4.6-6.3-5-.9-.3-1.8-.5-2.7-.9-3.3 2.9-7.3 3.5-11.3 4.1.1.2.1.2.1.4 2.4.9 5.7-.2 6.8 3.3h1.5c3.8-1.2 8.3 1.9 11.9-1.9z" fill="#e5e5e5"/><path d="M316.97 120.299c-3.1-1.4-6.1-2.8-9.2-4.2-.3 0-.5 0-.9-.1-2.9.2-6.4-.5-8.3 2.6-1.2 1.9.8 3.4 2.3 4.6 1.5.9 3 1.6 4.5 2.5 4-.6 8.1-1.2 11.3-4.1.2-.6.3-.9.3-1.3z" fill="#191919"/><path d="M437.77 52.599c0-1 3.1-13.4 1.5-11.4-1.5 2.1-6.2 7.2-6.2 9.1 0 1.8.9 6.3.9 6.3l3.8-4z" fill="#1b1b1b" stroke="#1b1b1b" stroke-miterlimit="10"/><path d="M259.47 98.699c.9 2.9 3.2 3.3 5 4.3 2.2 1.1 5.5 1 7.7 2.3.5.3 2.2.7 1.6 1.1-.5.3-.6.9-.2 1.2.5.3 1.5 1.5 2.1 1.8 2.4 1.2 9.9 7.6 10.6 8 1.2.8 3.4 2.6 4.5 3.5 1.2 1.1 4.5 3.4 5.8 4.4 2.3 1.7 6.8 2.2 9.4 3.3 1.7.7 4.1-1.2 6-1.2 1.6 0 3.5.2 4.9-.9.8-.5 1.3-1.2 2.3-1.4 1.1-.2 2.2-.2 3.3-.5 2.2-.5 4.3-1.2 6.4-1.8 2.2-.5 4.3-1.3 6.3-1.9 1.4-.4 2.7-.4 4.1-.6 2.7-.5 5.4-1.6 8.1-2.2 4-.9 8.2-.9 12.3-1.7 5-1 10-2.4 14.7-4.4 1.9-.8 3.5-1.9 5.1-2.9 2.6-1.7 4.3-3.9 6-6.3 2-2.7 3.9-5.5 5.9-8.1 1.2-1.5 2.5-2.9 3.6-4.5 1.4-1.9 3.3-3.1 5-4.7 4.6-4.3 8.2-9.4 11.9-14.5 1.2-1.7 1.9-3.5 2.9-5.2s2.2-3.3 2.9-5.2c.5-1.2.5-2.2 1.4-3.2.7-.8 1.4-1.4 2-2.3.6-.9 1.2-1.9 1.9-2.7 1.2-1.5 2.1-3 2.7-4.7.3-.9.6-1.6.9-2.5.5-1.3.5-2.9.8-4.3.7-3.2 1.5-6.2 2.3-9.4.9-3.6 1.1-7.1 1.5-10.8.5-4.6.3-9.2.3-13.8 0-3.3.5-6.5-1-9.5-.9-1.9-2.4-3.3-2.9-5.4-.4-1.7-.8-3.3-1.8-4.6-2.5-3.5-5.6-6.7-8.4-9.8-3.2-3.4-5.3-7.5-7.7-11.4-.7-1.1-1.9-1.6-2.9-2.4-1.4-1-3.2-2-4.4-3.3-.6-.6-2.2-4.1-3.2-1.7.5 1 1.2 2.1 1.8 3.1.9 1.5 2.4 1.8 3.7 2.9 1.5 1.3 3.1 2.8 4.6 4.2.8.7 1.5 1.4 2 2.4.4.9 1.1 2.2.2 3.1-.6-.2-1.5-1.6-1.9-2.1-.5-.7-.8-2-1.6-2.2-.7.5-.5 2.3-.3 3 .2.9.6 1.5 1 2.2.6 1.3 1.2 2.6 1.7 3.9.6 1.6.7 3.1 1 4.7.6 2.9.4 5.7.9 8.6.6 3.5.4 7.1.4 10.6 0 1.4.1 2.9-.1 4.3-.2 1.5-.4 3.7-1.2 5-.6 1.1-1.8 1.8-2.8 2.4-2.5 1.6-4.8 3.3-6.8 5.4-1.6 1.8-3.6 3.3-5.2 5.1-1 1.2-2.1 2.3-3.1 3.5-1.2 1.4-2.1 3-3.3 4.4-1.3 1.6-3.1 2.6-4.2 4.4-.7 1.3-1.2 2.6-2 3.9-.8 1.2-1.5 2.2-2.2 3.5-.9 1.5-1.5 3.3-2.3 5-.9 1.9-1.7 3.9-2.6 5.8-.5 1-.9 2.1-1.2 3.2-.2.6 0 .6-.5 1.1s-1 .7-1.4 1.2c-1.3 1.5-2.8 3.1-3.9 4.8-1.3 2.1-2.8 4.1-4.7 5.7-1.2.9-2.4 1.7-3.7 2.5-3.5 2.1-6.9 4.3-10.4 6.5-3.9 2.5-7.7 5.1-11.8 7.3-2.9 1.6-6.5 2.2-9.6 3.6-2.6 1.2-5.2 2.7-7.8 3.9-3.7 1.7-7.4 3.3-10.8 5.3-1.4.8-2.9 1.9-4.4 2.4-1.7.5-3.6.4-5.4.4-1.3 0-2.8.2-4 0s-2.6-.7-3.7-1.1c-.7-.3-1.4-.7-2.1-.9-1.1-.3-2.2-.3-3.3-.4-3-.2-6-.9-9-1.5-2.1-.4-4.2-.9-6.3-1.2-1.5-.2-2.9-.8-4.3-.8h-5.5" fill="#a7a7a7"/><path d="M317.97 126.099c.5-.4.8-1 1.2-1.5.5-.4 1-.5 1.5-.9 1.6-.9 3-2.2 4.6-3 .7-.4 1.5-.8 2.3-1 .6-.2 1.3-.2 1.9-.5 1.1-.8.9-2.6 2-3.1.9-.4 2.5 0 3.5 0 1.6 0 2.9-.5 4.2-1.5 1.1-.9 2.1-2.2 3.4-2.6 2.4-.8 5.5.4 8 .4 1.5 0 2.6-.6 3.9-.9.4-.1.7.2 1.1-.1.7-.4.8-2.2.9-2.9.1-.4.1-1.4.3-1.7.5-.8 2.7-.6 3.4-.7 1.6-.2 2.9 0 4-1.2 1.6-1.8 3.3-3.6 4.5-5.8.8-1.4 1.2-2.9 2.1-4.3.4-.6.7-1.2 1-1.8.4-.9.2-1.5.4-2.2.6-3.2 3.9-3.3 6-4.8 1.2-.9 2-1.3 3.3-1.9 1.5-.7 2.4-1.9 3.9-2.6 1.2-.5 2.2-1.8 1.1-3-.7-.8-2.1-1.2-2.2-2.5-.2-1.1 1.1-2.4 1.9-2.9 1.5-1.1 3.9-.9 5.7-1.2 2-.2 3.6.3 5-1.5 1-1.4 1.7-3.2 2.9-4.4.6-.6 1.4-1 2.1-1.5 1.1-.9 1.8-1.9 2.6-3.1 1.1-1.7 1.4-2.2.1-3.7-.8-.9-1.2-1.5-1.3-2.8v-3.5c0-1.5.5-2.8.5-4.3-.1-2.2-2.1-2.6-3.5-3.9-1.9-1.7-.3-4.7-1.2-6.9-1.1-2.7-5.3-5.3-3.1-8.5 1.5-2.1 3.6-2.2 5.9-2 1.5.1 2.9.9 4.5 1.1.5.1.8.2 1.3-.1.9-.4 1.5-.9 2.2-1.5.2-.5.5-.8.9-.9.5.5.6 1.1.9 1.6.5.7.9 1.3 1.5 1.9.5.6 1 1.2 1.7 1.6.5.3 1.1.4 1.5.8 1.1.9 1.8 2.1 2.7 3.2.8.9 1.6 1.8 2.5 2.6 1.5 1.4 2.3 1.5 4.1.5 2-1.2 1.7-3.9 1.7-5.9v-5.4c0-3.5-1.2-7-1.7-10.5-.2-2.1-.3-4.1-.5-6.2-.1-1 .1-2.2-.6-3.1-.7-.9-1.7-1.2-1.5-2.6.2-1.1.9-2.2 1.1-3.3.3-1.9-.2-3.9-.5-5.7-.2-.9.1-1.9.3-2.7.2-.5.5-1.1.6-1.6.2-.9.1-2.1.6-2.9 1.6-.2 1.7 1.9 2 2.9.2.8.5 1.5.6 2.3.2.7.2 1.6.5 2.3.2.8.9 1.2 1.4 1.9.5.9 1.2 1.5 1.9 2.3 1.1 1 2.6 1.3 3.6 2.5.9 1 1.2 2.3 1.5 3.6.4 1.3.9 2.7 1.1 4.1.2 1.3.8 2.2 1.3 3.4.5 1.1.4 2.6.7 3.8.3 1.4.4 2.6.4 4v2.3c0 1.5-.4 3-.4 4.5-.1 2.6-.5 5.2-.8 7.7-.3 3.5-1.6 6.7-1.5 10.1s-1.1 6.7-1.7 10c-.4 1.9-.5 3.9-1.2 5.8-.5 1.2-.8 2.6-1.1 3.9-.5 1.9-1.2 3.6-1.7 5.4-.3 1.1-.9 2.2-1.5 3.1-.6 1-1.3 1.9-1.9 2.9-.6 1-1.5 1.9-1.7 2.9-.9 4.1-4.5 5.9-7.1 8.9-3.3 3.8-6.3 7.7-9.4 11.8-1.5 2.1-3.3 4.3-4.5 6.7-.3.7-.2 1.4-.5 2.1-.2.6-.9.9-1.3 1.4-.9 1-1.9 1.9-2.9 2.9-2 2.1-4 4.3-6.3 6-2.6 2.1-6 2.9-8.8 4.6-1.5.9-3.3 1.5-5 2.3-1.9.9-3.8 1.5-5.7 2.2-1.6.6-3.3.9-5 1.5-.9.2-1.7.4-2.5.7-1.4.4-2.9.5-4.3 1.2-1.4.5-2.4 1.2-3.9 1.5-1 .2-1.7.5-2.6.9-1.5.6-3.8.2-5.5.2-2.5 0-4.8 0-7.2-.3-1.3-.2-2.6-.1-3.9-.1-1.1 0-2.1-.4-3.2-.4-1.6-.1-3.3-.4-4.9-.8-2.6-.7-5.1-1.8-7.7-2.6-2.2-.7-4.5-2.2-6.8-2.3" fill="#656565"/><path d="M319.37 127.499c2.1-2.4 5.8-4.7 8.8-5.9.9-.3 1.9-.4 2.7-1.1 1.3-1.2.9-2.3 3-2.6 1.6-.2 2.8.1 4.3-.6 1.2-.5 2.1-1.4 3.1-2.2 3.5-2.6 7.3-.5 11.2-1.3 1.8-.3 4-.4 5-2.1.5-.9.2-2.2.6-2.9.7-1.2 1.8-.7 3.2-.9 6-.7 8.7-8.1 11.1-12.7.6-1.2.9-2.2 1.3-3.5.9-2.5 1.7-2.4 3.6-3.4 3.2-1.6 6.8-3.6 9.5-6 1.5-1.2 2.2-2.9 1.2-4.7-.5-.9-2.2-1.8-1.5-3 .7-1.3 4.6-1.1 6-1.2 2.3-.2 3.9-.4 5.6-2.2 1.3-1.6 1.8-3.3 3.4-4.7 1.1-.9 2.2-1.7 3.2-2.9 1.2-1.6 2.8-3.6 2.2-5.7-.6-2-1.6-2.1-1.9-4.6-.2-1.9.3-3.7.4-5.6.1-1.3-.1-2.6-.9-3.7-.7-1.1-2-1.4-2.8-2.3-1.3-1.5-.5-3.5-.8-5.3-.2-1.4-1-2.5-1.9-3.6-1.3-1.8-3.1-5 .5-5.5 2.2-.3 4 .9 6.1 1.1 2.8.3 3.6-1.3 5.7-2.7-.9-.2-1.8-.5-2.6-.7 1.9 2.8 3.5 4.6 6.1 6.7 2.4 1.9 3.7 5.2 6.6 6.7 2 1 4.4.5 6-1.2 1.9-1.9 1.5-4.9 1.5-7.3 0-3.8-.1-7.4-.9-11.1-.9-4.1-.5-8.4-1.5-12.4-.2-1-.9-1.7-1.3-2.6-.7-1.5.2-2.6.5-4.2.4-2.6-.9-5.3-.3-8 .3-1.4.7-3.2 1.2-4.5-.6.5-1.2.9-1.9 1.4-.2 0 1.5 6.8 2 7.6.6.9 1.5 2 2.2 2.9 1.3 1.3 3.5 2.1 4.6 3.6 1.7 2.4 1.9 6.5 2.9 9.2 1.5 4.2 1.5 8.7 1.1 13.1-.4 3.8-.5 7.7-1.2 11.5-.7 3.9-.9 8-1.6 11.9-.7 3.6-1.3 7.4-2.3 10.9-1.1 3.9-1.9 8.4-3.9 12-.9 1.5-1.9 2.9-2.9 4.3-.9 1.3-1.2 2.7-1.8 4-1.5 2.9-4.8 5-7 7.5-2.5 2.9-4.8 5.9-7.1 9-2.2 2.9-5 6-6.3 9.4-.6 1.5-1 2.4-2.2 3.6s-2.5 2.5-3.6 3.7c-3.2 3.2-6.2 5.3-10.2 7.1-7.1 3.3-13.8 6.3-21.4 8.2-3.3.9-6.4 2.4-9.8 3.3-4.1 1.2-9.4-.1-13.5-.2-4.1-.2-8.1-.5-12.1-1.7-4.1-1.3-8.2-3.8-12.5-4.4-2.4-.3-3.5 3.4-1 3.7 4 .5 8.1 2.9 11.9 4.2 3.6 1.2 7.4 1.9 11.1 2.1 4.4.3 8.9.4 13.4.5 3.1 0 6-1 8.9-2.2 7.6-3 15.6-4.3 23.1-8 3.3-1.7 7-3.1 10.1-5.3 3.5-2.6 6.6-6 9.5-9.2 2.3-2.4 3-5.7 5-8.4 2.9-4.1 6-8.1 9.3-12 2.1-2.6 4.9-4.6 6.9-7.1 1.1-1.4 1.4-2.6 2.1-4.2.9-1.9 2.4-3.5 3.5-5.3 4.2-7 5.4-16.5 6.9-24.4.9-4.3 1.2-8.8 1.9-13.2.6-3.9.9-7.9 1.2-11.8.4-4.2.3-8.9-.9-12.9-1.2-3.5-1.8-8.7-4.2-11.6-1.2-1.5-3.3-2.1-4.6-3.6-1.6-1.8-2.2-3.9-2.8-6.1-.7-2.6-1.1-5.2-4.2-5.5-.9-.1-1.5.7-1.9 1.4-.8 2-1.5 4.9-1.6 7 0 1.7.7 3.3.6 5-.1 1.7-1.2 3.1-1.2 4.8-.1 2 1.5 2.8 2.1 4.6.7 2.2.3 5.4.6 7.7.5 3.3 1.5 6.5 1.6 9.9.1 1.8 0 3.6 0 5.4 0 .8.3 2.6-.1 3.2-2.3 3.2-5.5-3.1-6.8-4.3-1-.9-2.2-1.3-3.2-2.2-1.3-1.1-2-2.7-2.9-4-.5-.8-1.8-1.3-2.6-.7-1.2.8-1.7 1.9-3.2 2-1.5.2-3.2-.8-4.7-.9-2.6-.2-5.1.2-6.9 2.2-1.4 1.6-1.9 3.6-1.2 5.6.4 1.2 1.2 2.2 1.9 3.2 1.5 2.1 1.5 3.3 1.6 5.7.2 2.8 1.3 3.4 3.1 5.3 2.6 2.6.2 7.4 1.2 10.8.5 1.3 1.7 2.2 1.5 3.5-.2 1.9-3 3.3-4.3 4.3-.8.7-1.4 1.5-1.9 2.4-1.5 2.4-2.6 3.2-5.4 3.4-3.4.2-11.8 2.4-8.4 7.7.3.5 1.7 1.3 1.5 2.1-.2.8-3.9 2.6-4.5 2.9-2.3 1.3-5.8 2.6-7.7 4.5-2.2 1.9-2.4 5.3-3.6 7.8-1.6 3.2-3.5 8.5-7.4 9.3-1.9.4-4.3-.3-5.7 1.3-.7.8-.5 1.7-.8 2.6-.5 1.9.2 1.4-2 1.9-3.6.8-7.4-1.2-10.8.3-1.8.8-2.7 2.5-4.4 3.3-2 1.1-4.2-.1-6.2.7-1 .4-1.5 1.2-2.1 1.9-1.1 1.5-1.7 1.5-3.5 2.3-3.1 1.4-6.7 3.6-8.9 6.2-2 1.9.7 4.7 2.4 2.7z" fill="#656565"/><path d="M310.17 126.899c2.9 0 5.4 1.2 7.8 2.7 1.2.8 2.7 1.7 4.1 2.2.6.2 1.3.3 2 .5.5.2 1.1.5 1.6.6.7.1 1.5.1 2.2.2 1.4.2 2.7.8 4 1 .9.2 1.7.2 2.6.4 4.4 1 8.7.9 13.2.9h8.8c2.6 0 5.5-1.1 7.8-2.3 1.2-.7 2.5-1.7 3.8-2.2 1.1-.5 2.4-.7 3.6-.9 3.6-.5 7.1-1.2 10.8-2 .9-.2 1.7-.7 2.6-1 .9-.2 1.7-.4 2.6-.9 1-.5 2.3-1.5 3.4-1.9 1.4-.5 2.2-.7 3.2-1.9.5-.6.8-1.2 1.5-1.8 1-.8 2-1.3 2.8-2.3.9-1.2 1.7-2.4 2.8-3.5.5-.5 1-1.2 1.5-1.8.5-.5 1.2-.9 1.8-1.5.8-.9 1.5-1.9 2.1-2.8.9-1.3 1.9-1.9 2.6-3.4 1-2.3 1.6-4.8 2.4-7.2.4-1.1 1-1.8 1.7-2.7.4-.5 1-.9 1.4-1.5.5-.6.7-1.3 1.2-1.9 1.2-1.4 2.8-2.2 4.2-3.2 1.2-.8 2.2-2.1 3.1-3.1 1.8-2.2 3.7-4.3 5-6.8.5-1.1.7-2.3 1.2-3.4.6-1.4 2-1.9 2.6-3.2.4-.9.7-2.2.8-3.1.1-1 .2-1.8.4-2.8.1-.7.3-1.3.5-1.9.2-.8.2-1.5.4-2.3.1-.5.3-.9.3-1.5.1-.7-.2-1.5.1-2.2.2-.6.9-1.2 1-1.9.2-.7.4-1.5.5-2.3.1-.5.9-3.1 0-3.2-1.3 1.1-1.8 3.9-2 5.5-.2 1.2-.2 2.3-.6 3.5-.3 1-.3 2-.5 3-.7 2.6-2.6 4.7-4.1 6.9-2.1 3.3-4.5 6.2-6.7 9.3-.8 1.2-1.9 2-2.7 3.1-.6.7-1.2 1-1.9 1.6-.5.5-.9 1.3-1.5 1.9s-1.2 1.4-1.8 1.9c-.3.3-.9.5-1.1.9-.6.8-.5 1.9-.9 2.8-.9 2.6-3.7 2-5.7 2.8-.8.3-1.7.6-2.3 1.2-1.1.9-2.3 1.7-3.1 2.9-.6.9-.8 1.5-.8 2.5 0 1.6-.5 3.3-.9 4.9-.4 1.8-.7 2.7-2.2 3.9s-3.6 2.3-5.5 2.4c-.7 0-1.5-.2-2.2 0s-1.2.5-1.9.8c-1.8.8-4 .6-6 .7-1.3.1-2.9.9-4 1.6-.7.5-1.2 1-2 1.5-.9.5-1.3 1.2-2.1 1.9-.9.8-2.3.5-3.4.5-1.2-.1-2.2-.5-3.2-1.2-.6-.4-1.9-1.9-2.6-1.9-2.2-.2-3.6 3.6-5.5 4.4-1.7.7-3.6 0-5.4.2-1.9.2-3.2 1.7-4.3 3.1-1.2 1.5-2.6 4.1-4.8 3.9-1.5-.2-2.8-.9-4.3-.8-.8.1-1.3.5-1.9.9-.8.4-1.2.4-2.1.4h-5.1c-2.1 0-4.6-.4-6.7 0-1 .2-1.7.4-2.8.4h-7.8c-1.3 0-3.2-.1-4.3-.8" fill="#1b1b1b"/><path d="M310.17 128.899c3.9.2 6.6 2.6 9.9 4.3 2.1 1 4.5 1.7 6.7 2 3.5.5 6.9 1.5 10.4 1.9 3.7.5 7.5.4 11.2.4 6.7 0 12.4.2 18.3-3.4 5.4-3.3 12.9-2.9 18.8-5 2.6-.9 4.9-2.1 7.4-3.3 2.3-1.1 4.2-3.3 6.1-5.1 2.1-1.9 3.6-4.5 5.6-6.5 2.1-1.9 4-4.2 5.6-6.6 1.5-2.2 2-5 2.9-7.6 1-2.9 4.2-6.7 6.7-8.4 4.1-2.8 8.4-7.4 10.4-12 .9-1.9 1.7-3.4 2.9-5.1.8-1.2 1.3-2.2 1.5-3.6.6-3.1 1.4-6.5 1.7-9.6.2-2.9 4.1-9.6.7-11.8-.7-.5-1.8-.3-2.3.3-3.2 3.4-2.5 8.7-3.7 12.9-.9 2.9-3.3 5.7-5.1 8.2-2.2 3.1-4.3 6.3-6.8 9.1-1.8 1.9-3.5 3.7-5.3 5.6-.6.7-1.6 1.2-2.2 2-.8 1.1-.8 2.3-1.6 3.3-1.3 1.5-4.2 1.4-6 2.4-1.9 1.1-4 2.9-5 4.9-1 2.2-.7 4.7-1.4 7-.6 2-1.5 3.1-3.3 4s-3.4.5-5.3.9c-1.4.2-2.6 1-3.9 1.2-1.3.2-2.6.1-3.9.2-2.9.5-5 2.2-7.3 3.9-1.4 1-2.4 1.9-4.3 1.4-1.3-.4-2.2-1.6-3.3-2.3-1.5-.9-2.9-.9-4.3.1-.8.5-1.4 1.2-2 1.9-1.3 1.5-2.4 1.8-4.3 1.9-2.9.2-4.5.4-6.7 2.4-1 .9-1.8 2.6-2.8 3.4-1.7 1.4-3.1.5-4.9.3-1.2-.1-2 .2-3.1.5-2.2.7-4.2.6-6.5.6-3 0-5.8-.1-8.8.2-3.3.4-9.3 1-12.4-.4-2.2-1-4.3 2.3-1.9 3.3 5.3 2.4 11.8.8 17.4.5 3.2-.2 6.4.2 9.6.2 1.2 0 2.1-.2 3.3-.5.9-.2 2.1-.6 3.1-.5.9.1 1.7.5 2.6.5 2.2.1 3.7-1.3 5.1-2.9.7-.9 1.3-1.9 2.2-2.7 2.2-1.9 4-.9 6.4-1.3 2.8-.4 3.1-2.2 5.1-3.6 1.3-.9 1.2-.5 2.5.5 1.1.8 2.2 1.3 3.4 1.5 1.9.4 4 .4 5.7-.8 3.4-2.3 5-4.3 9.4-4.6 2.8-.2 5.3-1.2 8.1-1.5 2.6-.2 5.3-1.7 7.1-3.6 4.2-4.5.9-12.1 8.1-14.2 1.9-.6 4-.5 5.5-2 .5-.5.9-1.2 1.2-1.9.9-2 1.7-3 3.2-4.7 1.9-2.2 4.3-4.2 6.1-6.6 2.4-3.2 4.7-6.4 7-9.7 2-2.9 3.8-5.3 4.6-8.8.6-2.7.4-7.5 2.4-9.7-.8.1-1.5.2-2.3.3-1.2-.8-3.2 10.9-3.4 12.2-.6 3-.5 5.5-2.6 8-1.8 2.2-2.2 4.9-3.7 7.2-1.5 2.2-3.4 4.6-5.3 6.4-1.9 1.7-4.2 2.6-5.7 4.6-1.4 1.7-3.1 3.6-4.1 5.6-1.3 2.6-1.5 5.5-2.9 8-1.4 2.4-3.3 4.7-5.3 6.7-1.9 1.8-3.3 3.9-5 5.8-1.6 1.8-4.4 4.5-6.6 5.4-2.3 1-4.4 2.2-6.8 3-5.3 1.9-11.8 1.3-16.8 3.9-2.5 1.2-4.5 2.9-7.2 3.6-3.4.9-7.5.5-11 .5-7.4 0-14.3-1.1-21.6-2.3-6-1-10.4-5.9-16.6-6.2-3-.1-3 3.8-.6 3.9z" fill="#1b1b1b"/><path d="M254.87 88.599c.9-.9 1.8-1.7 2.9-2.4 1-.5 1.5-1 2.3-.3.5.6.8 1.2.9 2 .5 1.4 1 2.8 1.6 4.2.4.9.7 2.1 1.5 2.6 1.2.8 2.8 1.3 3.8.1.5-.5.9-2.2 1.6-2.5 1.3-.4 3.5 1.6 4.6 2.2 1.2.5 1.9.6 3.1.2 1.2-.5 1.4-.2 2.6.5 1.2.6 2.2 1 3.5.2.9-.6 1.2-1.6 2.3-1.4 1.2.2 1.8 1.2 3.2.6 1.5-.6 1.5-2.2 2.3-3.3.5-.9.6-.7 1.5-.5 1.1.2 1.8.2 1.9-1.1 1.7 0 3.5.4 5.2.5 1.7.2 4.6.9 6.3.2 2.4-.8 2-4.6 2.1-6.6.4-.3.7-.2.9.2.8-.7.5-3.8.5-4.4 0-1.2-.2-2.4-.1-3.5.2-1.8 3.3-2.1 4.6-1.4.7.4.7.8 1.2 1.3 1.1 1.1 2.9 1.5 4.3 1.7 3 .4 3.9-2.3 3.3-4.8 1.2.9 3.9 2.7 5.3 1.5.8-.7.7-2.1 1.2-3 .3-.6.7-.7 1.3-1.1 5-2.6 11.3-2.7 16.8-2.3 2 .2 4.2.8 6.2.5 1.7-.3 2.8-1.2 3.3-2.8 1.5-2 2.3-4.4 2.3-7.1.4-3.3.1-6.7.7-10 .2-1.2.5-1.8 1.4-2.6 2.1-2 2.6-5 2.9-7.7.2-1.5.9-2.7.9-4.3 0-1.2-.2-8-2-7.4-.5 1.2.5 2.7-.2 3.8-.4.6-1.6.7-2.2.9-1.9.5-3.8 1.1-5.7 1.9-1.3.5-2.9 1-3.9 1.9-.7.7-1.2 1.5-1.5 2.4-.3.8-.5 2.1-1.2 2.6-.7-.8-.3-2.1-.4-3 0-.5-.2-1.1.1-1.5.5-.9 2.4-1.2 3.3-1.5 1.6-.5 3.3-1.2 4.6-2.5 1.1-1.2 1.8-2.8 2.5-4.2.3-.6.6-1.5 1.2-2 .4-.3.8-.5 1.2-.9 1.7-1.9 2.9-4.5 4.3-6.7.8-1.4 1.6-3.9 3.3-4.3.6-.2.6.1 1.1-.5s.3-1.9.5-2.6c.2-1.2.8-4.1 2.1-4.6 1.5 1.5 1.2 3.7 2 5.6.5-2.2.8-4.6 1.5-6.8.5-1.4.9-1.3 2.5-1.5 3.2-.3 7.4.1 9.2-3.3 1-1.9 1.4-4.3.9-6.4-.3-1.2-1-1.9-.8-3.1.2-.7.6-1.6 1.1-2.2 1-1.5 2.7-2.3 3.8-3.9 1.6-2.2 2-4.3 1.4-7-.3-1.1-.3-2.1-.5-3.2-.2-1.5-.6-2 .9-2.6.8-.3 1.2-.2 1.9-.9.8-.9.8-2.2 1.2-3.2.5-1.3.9-2.6 1.1-3.9.3-1.8-.2-3.6.1-5.5 1.1 1.9 2.2 3.5 3.6 5.1.9 1 1.9 1.9 2.9 2.8l2.7 2.1c1.5 1.4 1.9 3.9 2.4 5.8 1.9 6.3 3.9 12.7 5.8 19s3.5 12.4 4.5 18.8c.6 3.9 1.7 7.8 2.8 11.5.9 2.7 2.1 5.4 1.9 8.3-.1 1.1-.1 2.9-.7 3.8-.7 1.2-2.9 1.5-4 1.6-1.1.2-2.2.3-3.2.4l-2.1.3c-.7-.2-1.2-.6-1.4-1.3-.9-1.3-1.9-2.6-2.9-3.8-1-1.3-2.2-2.6-3.5-3.6-.8-.9-1.7-1.4-2.8-1.5-.6.1-1.1.9-1.7 1.1-.9.3-1.4 0-2.1.9-.6.9-.9 1.9-1.1 3 .1.6 0 1.1-.4 1.5-.7-.2-1.4-1-2.1-1.1-1.2-.2-1.3 1.6-1.5 2.5-.2.7-.2 1.4-.6 1.9-.4.2-.8.5-1.2.6-1.2 1-2.2 2.2-2.8 3.7-1.5 3.6-1.5 7.5-2 11.3-.2 1.7-.3 3.6-1.2 5.2-.5.8-.9 1.2-1.1 2.2-.3 1.5.1 3.2.4 4.6.4 1.8.3 2.2-1.3 2.9-2.4 1-4.6 1.9-6.4 3.9-1.4 1.5-1.9 3.5-2.4 5.4-.5 1.6-.9 1.8-2.6 2.1-3.2.6-5.2 1.8-6.7 4.7-1.5 2.9-2.6 6.1-3 9.3-.2 1.9-1.4 1.8-3.3 2.1-3 .5-6.4 1.2-9.4.8-2.2-.3-4.5-1.6-6.5-2.6-1.4-.6-3.9-2.2-5.6-1.3-1.4.8-1.7 2.4-2.3 3.7-.5.9-1.2 1.7-1.9 2.5-1.5 1.9-2.9 3.8-4.1 6-.5.9-1 3.1-1.9 3.5-1 .4-2.6-1.2-3.4-1.7-1.5-1.1-2.2-1.8-3.8.1l-1.2 1.8c-.5.9-1.1 1.9-1.6 2.8-1 .7-1.1-.2-1.9-.7-1.8-1.4-3.5 1.7-5 2.2s-3.2.4-4.7.6c-1.6.3-3.3 1.2-5 .9-.9-.3-1.8-.5-2.7-.7-.9-.1-1.9-.1-2.9.2-.9.1-1.7.3-2.4.7-.4.5-.9.8-1.5.9-.9-1.3-1.2-2.8-2.6-3.4-1.5-.7-3.2.2-4.7.2-1.8-3-3.7-7.4-7.2-8.9-1.3-.5-3-.8-4.3-.4-.3.3-.7.5-1.2.4-1-.5-2-.9-3-1.2-2.2-.8-4.4-1.2-6.7-1.5-1.3 0-2.5-.3-3.6-.8-.9-.7-1.5-2.1-1.9-3.1-.5-1.2-.6-2.4-1.2-3.5-.5-.9-.8-2.3-1.5-3" fill="#c5c5c5"/><path d="M377.77 72.699s.5-12.9-6.4-16c-7-3.2-18.8-7.4-26.4-5.9s-14.2 4-14.6 12.2c-.5 8.1-4.6 19.5 0 24.3 4.6 4.7 7.6 10.1 13.2 11.2 5.6 1.1 9.8 1.9 16.7.3 7-1.6 11.7-1.2 13.5-6.8 1.9-5.5 4-19.3 4-19.3z" fill="#f1f1f1"/><path d="M357.07 104.099s12.5 2.8 16.9-3.6c4.3-6.3 10.6-17.3 10.5-24.9-.2-7.7-1.5-14.6-9.4-16.6-7.9-1.9-18.4-8-23.9-4.3s-11.3 5.7-13.4 11c-2.1 5.3-3.6 9.2-3.3 16.4.4 7.1-.9 11.7 4.3 14.6 5.2 2.8 18.3 7.4 18.3 7.4z" fill="#1b1b1b"/><path d="M351.07 51.399s-13.4.2-16.3 7.5c-2.9 7.2-6.4 19.4-4.4 26.9 2.1 7.5 5.2 13.9 13.7 13.9s20.7 3.3 25.3-1.5c4.6-4.9 10.1-8.3 10.8-13.9s1.4-9.9-.8-16.8-2.1-11.6-8-13.2c-5.8-1.7-20.3-2.9-20.3-2.9z" fill="#8b8b8b"/><path d="M340.67 93.999s-10.1-3.6-7.1-13.4-.3-18.3 4.8-21.4c5.1-3 6.6-5.5 13.5-4.8 7 .7 10.8 1 10.8 1s-19.8-1.1-20.7 8.9-5.5 12.1-5 17c.4 5-1.8 10.6 3.7 12.7z" fill="#2f2f2f"/><path d="M352.17 96.299s4.4 2.1 9.8.2c5.4-1.9 8.3-.8 10.6-5.7s5.2-6.4 5.2-11.4 1-6.2-1.3-9.8l-2.3-3.6s4.9 6.2.5 14.9-3.3 9.8-6 10.6c-2.6.8-12.4 4.5-16.5 4.8z" fill="#dfdfdf"/><path d="M409.87 12.099s-13.7-.5-15.7-11.4-.2-14.7-.2-14.7 6-14.2 18.8-1c12.9 13.2-2.9 27.1-2.9 27.1z" fill="#f1f1f1"/><path d="M403.27 11.299s19.6 7.8 20.1-4.8-8-19.4-12.2-21.8c-4.2-2.4-8.5-5.3-12.2-1.3-3.6 4-6 10.8-2.3 17.7 3.7 6.9 4.3 9.3 6.6 10.2z" fill="#8b8b8b"/><path d="M400.97 1.799s-4.9-2.9-3.9-8.5.9-9.1 3.7-9.4c2.8-.3 5.6-.9 7.9 1.1 0 0-4.4-2.9-7 1.3-2.6 4.1-4.6 6.7-2.9 10.1 1.9 3.3 2.2 5.4 2.2 5.4z" fill="#3b3b3b"/><path d="M407.87 7.199s3.1 4.1 7.2 2.3 6.4-1.3 6.4-4.9.2-5.7-2.1-8.3 1.8 4.1-.2 6.4c-2 2.4-1.7 6.9-11.3 4.5z" fill="#f1f1f1"/><path d="M371.47 9.299s-11.3-.3-11.8 8-5.3 19 15.2 19.3c20.4.3 10.2-25.9 5.5-26.5-4.7-.5-8.9-.8-8.9-.8z" fill="#1b1b1b"/><path d="M360.17 30.899s-2.9-4-3.1-9.5c-.1-2.9-1.1-6.3 3.1-9.8 3.9-3.3 10-4.2 12.9-3.9 6.3.6 9.8 5.4 9.8 5.4l-21.7 18.6" fill="#f1f1f1"/><path d="M370.87 8.699s-11.1-.2-11.6 7.8c-.5 8.1-5.1 18.6 14.8 18.8 19.9.2 10-25.3 5.4-25.9-4.6-.5-8.6-.7-8.6-.7z" fill="#8b8b8b"/><path d="M361.47 26.299s-3.3-9.4 1.9-13.4c5.3-3.9 12.4-1.9 12.4-1.9s-8.7.4-10.5 6.4c-1.6 6-4.4 6.4-3.8 8.9z" fill="#3b3b3b"/><path d="M370.17 33.099s8.7 2.2 11.6-2.9 2.2-9.9 2.2-9.9l-.6-2.7s.8 7.6-3.3 10.2-9.9 5.3-9.9 5.3z" fill="#f1f1f1"/><path d="M364.47-21.401s-3 5.3-.5 8 5.6 4.8 8.8 4.6c3.3-.2 6.4-1.3 6.9-3 .5-1.6.9-11.8-3-12.3-3.8-.5-9-.2-12.2 2.7z" fill="#1b1b1b"/><path d="M362.87-23.001s-3 5.3-.5 8c2.6 2.7 5 4 8.2 3.9 3.3-.2 7-.6 7.5-2.2s.9-11.8-3-12.3c-3.8-.6-9-.3-12.2 2.6z" fill="#f1f1f1"/><path d="M363.67-22.201s-3 5.3-.5 8 5 4 8.2 3.9c3.3-.2 7-.6 7.5-2.2s.9-11.8-3-12.3-9-.2-12.2 2.6z" fill="#8b8b8b"/><path d="M368.07-12.101s-5.7-2.7-4.8-5.1 1.1-5.3 5.7-6.3c4.6-1.1 5.4-1.5 6-.8.6.8-4.6 1.8-6.4 6.9-1.9 5.1-.5 5.3-.5 5.3z" fill="#3b3b3b"/><path d="M371.37-11.801s2.9.1 4.5-2.2 1.9-3.4 1.6-5.1c-.3-1.6 2.4 3-.6 5.3-3 2.1-5.5 2-5.5 2zM295.97 70.299s-6.1-3.1-5.1-10.1 5.8-8.1 5.8-8.1 4.5-2.2 10.4 2.2-10.6 16-10.6 16" fill="#f1f1f1"/><path d="M296.77 72.099s3.6 3.7 11.7 1.5 6.9-12.5 6.2-13.8-4.2-3.8-4.2-3.8l-13.7 16.1z" fill="#1b1b1b"/><path d="M292.37 59.799c.2-.4 2.2-5.5 4.5-6.3 2.2-.9 7.5-1.3 10.2.2 2.8 1.5 6.4 3.1 6.5 7.2.1 4.1-1.4 11.1-6.7 11.9s-8.3 1.9-10.9-1.5c-2.6-3.4-5.1-7.6-3.6-11.5z" fill="#8b8b8b"/><path d="M304.67 54.099c-4.5-.7-8.9-1.3-10.3 4.7 3.2 1.4 1.9 5 3.4 7.1 1.3-2.3 3-4.4 3.9-6.9.9-2.4 2.6-3 4.5-3.7.3-.1.5-.2.9-.3-.9-.3-1.7-.6-2.4-.9z" fill="#2f2f2f"/><path d="M387.97-42.001s-1.1.5-2-.5c-.4-.5-1.9-.5-3-1.5-1.2-1.2-2-3.4-2-4.1 0-1.3 0-3.4 1.1-3.4s5.6-.3 9.1 2.6c3.3 2.9-3.2 6.9-3.2 6.9z" fill="#f1f1f1"/><path d="M386.17-42.501s.9.7 2.2 1.2c.8.2 1.4.6 2.9.1 1.8-.7 4-2.2 4.5-3.3.6-1.3-.8-2.1-.8-2.1l-8.8 4.1z" fill="#1b1b1b"/><path d="M388.97-41.801s6.6-2.9 6.6-4.3-6.9-4.3-7.7-4.3c-.9-.1-1.8-.5-2.9-.4-1.1.1-2.2 0-2.6 1.3s.3 4 2.2 5.7c1.8 1.7 3.1 2 4.4 2z" fill="#5b5b5b"/><path d="M386.37-44.001s-.7-1.6 1.1-2.4c1.8-.8 3-.9 3.3-1.4.2-.5-3.1-3.7-5.3-2.3-2.1 1.4-3-.1-1.9 2.8 1 2.8 2.8 3.3 2.8 3.3z" fill="#3b3b3b"/><path d="M278.07 81.799s4.1 4.1 4.1 10.1.8 8.5-1.5 8.5-9.3 4.1-16.5-3.6c-7.2-7.8 13.9-15 13.9-15z" fill="#2f2f2f"/><path d="M275.17 100.699c2.9.6 5-6.6 3.9-12.5-1-5.9.2-7.2-3.3-9-3.6-1.8-6.7-4.6-9.5-2.1-2.9 2.6-7-2.1-6.4 7.2.4 9.3-.1 13 15.3 16.4z" fill="#8b8b8b"/><path d="M263.47 90.299s5.8 1.5 7.7-1.5 3.9-6.7 3.9-6.7 4.6 7.7 3.3 11.8-1.5 5.4-5.2 4.1-10.8-1.8-10.6-4.1c.2-2.4.9-3.6.9-3.6z" fill="#f1f1f1"/><path d="M261.77 88.999s-1.8-4.4.2-6.4c2.1-2.1 3.3-2.9 5.4-3.3 2.1-.5 4.6-1 5.2-.2.5.8.2-.8-4.1 2.6-4.3 3.2-6.7 7.3-6.7 7.3z" fill="#2f2f2f"/><path d="M333.77 12.699c0-1.5 2.6-1.5-3.1-6.7s-6.7-13.9-6.7-13.9 1.5 2.1-3.1 8.3-7.7 3.6-7.7 11.8c0 8.3 3.6 11.8 3.6 11.8s-1.5-6.2.5-12.4 4.1-6.7 4.1-6.7 2.6 3.1 4.6 7.2c2.2 4.1 7.8.6 7.8.6zm-54.1-35.2c0 1.5.5-3.6-.5 4.1-1 7.7-3.6 4.6-.5 9.8s3.6 8.3 3.6 8.3-12.4-10.3-9.3-18c3-7.8 6.7-4.2 6.7-4.2z" fill="#a7a7a7" stroke="#a7a7a7" stroke-miterlimit="10"/><g><path d="M221.67-105.901c0 1.9-1.2 2.1-3.1 2.1s-2.2-.8-1.9-2.6c.4-2.5.2-2.2 1.7-2.2 1.8-.1 3.3.8 3.3 2.7zm-8 138c0 1.1-.7 1.2-1.8 1.2s-1.3-.5-1.1-1.5c.2-1.4.1-1.3 1-1.3 1 0 1.9.5 1.9 1.6zm302.329-182.251c-2.497.501-2.97.068-2.697-1.298.2-1.4.1-1.3 1-1.3 1.264 0 2.369.799 1.697 2.598zM487.028 13.043c-2.521.51-3 .079-2.725-1.293.2-1.4.1-1.3 1-1.3 1.388 0 2.299.797 1.725 2.593zM173.77 5.799c-1.7.9-2.5-.2-3.3-1.9-.9-1.7-.3-2.4 1.5-2.9 2.4-.7 2.1-.9 2.8.5.9 1.8.7 3.5-1 4.3zm5.8-170.7c-1.7.9-2.5-.2-3.3-1.9-.8-1.7-.3-2.4 1.5-2.9 2.4-.7 2.1-.9 2.8.5.9 1.8.7 3.5-1 4.3zm25.4 266.9c-.7-.8-.3-1.4.5-2.1s1.2-.5 1.9.4c.8 1.2.8 1 .2 1.6-.9.7-1.9.9-2.6.1zm-39.5 156.8c-.7-.8-.3-1.4.5-2.1.8-.7 1.2-.5 1.9.4.8 1.2.8 1 .2 1.6-.9.7-1.9.9-2.6.1zm178-308c-.8.2-2.1.2-2.6.8-.5.5-1 1.3-1.4 1.9-.6 1-.6 1.3-.2 2.3.3.2.5.5.4.9-.1.3-.1.6 0 .9.7-1.2 1-1.9 2.2-2.6 1.1-.5 1.5-1.5 2.3-2.4-.3-1.1-2.9.5-3.5.9m-88.5 61.9c.1.2.1.5.2.6.9.3.9-.2 1.8.5.3.3.7 1.1 1.2 1.1 1.2-.1 1.2-3.4 1.5-4.2m26.2 25.7c-.1.3-.2.5-.4.8.5.7 2 .9 2.7 1.2m-3-220.5c0 1.9-1.2 2.1-3.1 2.1-1.9 0-2.2-.8-1.9-2.6.4-2.5.2-2.2 1.7-2.2 1.9-.1 3.3.8 3.3 2.7zm-51.1 163.6c0 1.9-1.2 2.1-3.1 2.1s-2.2-.8-1.9-2.6c.4-2.5.2-2.2 1.7-2.2 1.9-.1 3.3.8 3.3 2.7zm179.1-62.4c0 1.9-1.2 2.1-3.1 2.1-1.9 0-2.2-.8-1.9-2.6.4-2.5.2-2.2 1.7-2.2 1.8-.1 3.3.8 3.3 2.7zm-33.7-60.6c-1 .3-1.3-.4-1.6-1.4s.1-1.4 1.2-1.5c1.4-.2 1.2-.2 1.5.6.2 1-.1 2-1.1 2.3zm56-5.4c-1 .3-1.3-.4-1.6-1.4s.1-1.4 1.2-1.5c1.4-.2 1.2-.2 1.5.6.2 1.1 0 2.1-1.1 2.3zm-170.5 288.9c.9 1.7-.2 2.5-1.9 3.3-1.7.9-2.4.3-2.9-1.5-.7-2.4-.9-2.1.5-2.8 1.8-.9 3.5-.8 4.3 1zm68.5 84.7c.9 1.7-.2 2.5-1.9 3.3s-2.4.3-2.9-1.5c-.7-2.4-.9-2.1.5-2.8 1.8-.8 3.5-.7 4.3 1zm49.2-52.2c.9 1.7-.2 2.5-1.9 3.3s-2.4.3-2.9-1.5c-.7-2.4-.9-2.1.5-2.8 1.8-.9 3.5-.7 4.3 1zm35.1 103.2c.9 1.7-.2 2.5-1.9 3.3-1.7.9-2.4.3-2.9-1.5-.7-2.4-.9-2.1.5-2.8 1.7-.9 3.4-.7 4.3 1zm46.7-90.6c-.8.7-1.4.3-2.1-.5-.7-.8-.5-1.2.4-1.9 1.2-.8 1-.8 1.6-.2.7 1 .8 1.9.1 2.6zm-13.8-54.7c-.8.7-1.4.3-2.1-.5-.7-.8-.5-1.2.4-1.9 1.2-.8 1-.8 1.6-.2.7 1 .9 1.9.1 2.6zm26.8-86.6c-1.9 0-2.1-1.2-2.1-3.1 0-1.9.8-2.2 2.6-1.9 2.5.4 2.2.2 2.2 1.7.1 1.8-.8 3.3-2.7 3.3zm-264.1 66.5c-1.7.9-2.5-.2-3.3-1.9-.9-1.7-.3-2.4 1.5-2.9 2.4-.7 2.1-.9 2.8.5.9 1.7.7 3.4-1 4.3zm19.5-253.6c-1.7.9-2.5-.2-3.3-1.9-.9-1.7-.3-2.4 1.5-2.9 2.4-.7 2.1-.9 2.8.5.9 1.7.7 3.4-1 4.3zm38.2-21.7c-1.7.9-2.5-.2-3.3-1.9s-.3-2.4 1.5-2.9c2.4-.7 2.1-.9 2.8.5.8 1.8.7 3.5-1 4.3zm35.7 354.7c-1.7.9-2.5-.2-3.3-1.9s-.3-2.4 1.5-2.9c2.4-.7 2.1-.9 2.8.5.8 1.8.7 3.6-1 4.3zm-106.7-20.5c0 1.1-.7 1.2-1.8 1.2s-1.3-.5-1.1-1.5c.2-1.4.1-1.3 1-1.3 1 0 1.9.5 1.9 1.6zm48.6 55.3c0 1.1-.7 1.2-1.8 1.2s-1.3-.5-1.1-1.5c.2-1.4.1-1.3 1-1.3 1 0 1.9.5 1.9 1.6zm234.3-277.3c0 1.1-.7 1.2-1.8 1.2s-1.3-.5-1.1-1.5c.2-1.4.1-1.3 1-1.3 1 0 1.9.5 1.9 1.6zm14.9 152c.9 1.7-.2 2.5-1.9 3.3-1.7.9-2.4.3-2.9-1.5-.7-2.4-.9-2.1.5-2.8 1.8-.9 3.5-.7 4.3 1zm-48.9-213.9c-1.7.9-2.5-.2-3.3-1.9-.8-1.7-.3-2.4 1.5-2.9 2.4-.7 2.1-.9 2.8.5.8 1.7.7 3.4-1 4.3zm68.6 101.5c-.7-.8-.3-1.4.5-2.1.8-.7 1.2-.5 1.9.4.8 1.2.8 1 .2 1.6-.9.7-1.9 1-2.6.1z" fill="#8b8b8b"/></g><g><path d="M246.07-133.301s-6.7-21.3 45.9-21.3 55.2-23.8 55.2-23.8 4.1 26.3-6.7 42.8c0 0 14.9 5.7 27.9-.5 0 0-.5 22.2-25.3 27.3s-52.6-12.4-74.9 20.7c0 0 1.4-12.3-4.1-26.3-5.6-14.4-18-18.9-18-18.9z" fill="#f26522"/><linearGradient id="a" gradientUnits="userSpaceOnUse" x1="318.19" y1="172.843" x2="354.644" y2="101.631" gradientTransform="matrix(1 0 0 -1 0 150)"><stop offset="0" stop-color="#58595b"/><stop offset=".147" stop-color="#535355" stop-opacity=".853"/><stop offset=".609" stop-color="#464547" stop-opacity=".391"/><stop offset="1" stop-color="#414042" stop-opacity="0"/></linearGradient><path d="M300.47-14.401l29.7 72.5s13.5 18.9 34.5 9.1 22.1-24.5 9.2-32c-12.9-7.4-67.9-53.8-67.9-53.8l-5.5 4.2z" fill="url(#a)"/><linearGradient id="b" gradientUnits="userSpaceOnUse" x1="232.915" y1="224.086" x2="308.541" y2="224.086" gradientTransform="matrix(1 0 0 -1 0 150)"><stop offset="0" stop-color="#58595b"/><stop offset=".147" stop-color="#535355"/><stop offset=".609" stop-color="#464547"/><stop offset="1" stop-color="#414042"/></linearGradient><path d="M240.27-116.401l59.9 102.5s1.7 4 6.3 1.4.1-6.4.1-6.4l-60.5-114.3s-2.9-5.5-9.5-2.4c-1.3.6-3.3 2-3.6 3.4-.8 5.6 7.3 15.8 7.3 15.8z" fill="url(#b)"/></g><g><path d="M238.97-135.401c-1.9 0-3.5.9-4.2 2.7-.6 1.5-1.3 3.9.5 5 3 1.8 7.4-.1 8.7-3.1.7-1.7.2-3.6-1.8-3.9-1.8-.3-3.6.4-4.8 1.6-1.2 1.2-2.2 3.3-.3 4.5 1.4.8 2.8-.2 3.8-1 1.2-1 2.6-3.3 1.7-4.9-.9-1.8-3.9-1.7-4.9-.1-1.4 2.1 1.9 4 3.3 1.9 0-.1.1-.1.1-.2l-1.2.9c-.4.1.6.1.6.1-.3-.1-.6-.2-1-.2l-.4-.4c-.1-.3-.2-.6-.2-1 0 .6-.9 1.3-1.2 1.4h1-.2c.3.2.5.3.9.5l-.2-.2c.2.5.4.9.5 1.4v-.2c-.1.3-.2.6-.2 1 .4-.7 1.3-1.5 2.1-1.2-.3-.2-.5-.3-.9-.5l.2.2c-.2-.3-.3-.5-.5-.9-.1-.3-.2 0-.5.2s-.6.5-.9.8c-.2.2-.3.2-.7.2h-.9c-.5-.2-.4-.1.2.4.1.3.2.6.2 1 0-.5.2-1.2.4-1.6.2-.4.2-.3.6-.3 2.7-.2 2.7-4.1.2-4.1z" fill="#414042"/></g><path d="M421.47-145.501c-1.1 0-1.2-.7-1.2-1.8s.5-1.3 1.5-1.1c1.4.2 1.3.1 1.3 1-.1 1-.5 1.9-1.6 1.9zm-163.2-29c-1.1 0-1.2-.7-1.2-1.8s.5-1.3 1.5-1.1c1.4.2 1.3.1 1.3 1-.1 1.1-.5 1.9-1.6 1.9zm226.2 314.5c-.3-1 .4-1.3 1.4-1.6s1.4.1 1.5 1.2c.2 1.4.2 1.2-.6 1.5-1.1.2-2 0-2.3-1.1zM514.902-58.75c-.9-1.7.2-2.5 1.9-3.3 1.7-.9 2.4-.3 2.9 1.5.7 2.4.9 2.1-.5 2.8-1.8.8-3.5.7-4.3-1zM166.47-95.401c-1.1 0-1.2-.7-1.2-1.8s.5-1.3 1.5-1.1c1.4.2 1.3.1 1.3 1 0 1-.5 1.9-1.6 1.9zm179.6 14.3c-1.1 0-1.2-.7-1.2-1.8s.5-1.3 1.5-1.1c1.4.2 1.3.1 1.3 1-.1 1.1-.6 1.9-1.6 1.9zm2.7 303.2c.8-.7 1.4-.3 2.1.5.7.9.5 1.2-.4 1.9-1.2.8-1 .8-1.6.2-.7-.9-.9-1.9-.1-2.6z" fill="#1b1b1b" stroke="#1b1b1b" stroke-miterlimit="10"/></svg>