<?xml version="1.0" encoding="utf-8"?>
<!-- Generator: Adobe Illustrator 19.1.0, SVG Export Plug-In . SVG Version: 6.00 Build 0)  -->
<svg version="1.1" id="Layer_1" xmlns="http://www.w3.org/2000/svg" xmlns:xlink="http://www.w3.org/1999/xlink" x="0px" y="0px"
	 width="100px" height="78.4px" viewBox="0 0 100 78.4" style="enable-background:new 0 0 100 78.4;" xml:space="preserve">
<style type="text/css">
	.st0{fill:none;}
	.st1{fill:#898989;}
</style>
<g>
	<path class="st0" d="M18.8,16.6c4,0,7.2,3.2,7.2,7.2s-3.2,7.2-7.2,7.2s-7.2-3.2-7.2-7.2S14.9,16.6,18.8,16.6z"/>
	<path class="st1" d="M83.5,66.6c0,2.8-2.3,5.1-5.1,5.1H11.8c-2.8,0-5.1-2.3-5.1-5.1V17c0-2.8,2.3-5.1,5.1-5.1h52.2
		c0.6-2.4,1.6-4.7,3-6.7H11.8C5.3,5.2,0,10.5,0,17v49.6c0,6.5,5.3,11.8,11.8,11.8h66.7c6.5,0,11.8-5.3,11.8-11.8V35.4
		c-2.1,0.8-4.3,1.2-6.7,1.2V66.6z"/>
	<path class="st1" d="M26.7,41.7L10.6,54.9v9.2c0,1.8,1.5,3.3,3.4,3.3h61.8c1.9,0,3.4-1.5,3.4-3.3V36.2c-5-1.1-9.3-4-12.2-8L35.6,50
		L26.7,41.7z"/>
	<circle class="st1" cx="18.8" cy="23.7" r="7.2"/>
	<path class="st1" d="M83.4,0c-9.2,0-16.6,7.5-16.6,16.6c0,9.2,7.5,16.6,16.6,16.6S100,25.8,100,16.6C100,7.5,92.5,0,83.4,0z
		 M93.1,17.5c0,0.4-0.3,0.8-0.8,0.8H85l0,7.3c0,0.4-0.3,0.8-0.8,0.8h-1.7c-0.4,0-0.8-0.3-0.8-0.8v-7.3h-7.3c-0.4,0-0.8-0.3-0.8-0.8
		v-1.7c0-0.4,0.3-0.8,0.8-0.8h7.3l0-7.3c0-0.4,0.3-0.8,0.8-0.8h1.7c0.4,0,0.8,0.3,0.8,0.8V15h7.3c0.4,0,0.8,0.3,0.8,0.8L93.1,17.5z"
		/>
</g>
</svg>
