<?xml version="1.0" encoding="utf-8"?>
<!-- Generator: Adobe Illustrator 19.1.0, SVG Export Plug-In . SVG Version: 6.00 Build 0)  -->
<svg version="1.1" id="Layer_1" xmlns="http://www.w3.org/2000/svg" xmlns:xlink="http://www.w3.org/1999/xlink" x="0px" y="0px"
	 width="14px" height="14px" viewBox="0 0 14 14" style="enable-background:new 0 0 14 14;" xml:space="preserve">
<style type="text/css">
	.st0{fill:none;}
</style>
<g>
	<path class="st0" d="M8.5,2.1c-0.9-0.9-2-1.3-3.2-1.3S2.9,1.2,2.1,2.1c-1.8,1.8-1.8,4.6,0,6.4c0.9,0.9,2,1.3,3.2,1.3
		s2.3-0.5,3.2-1.3C10.2,6.7,10.2,3.8,8.5,2.1z" fill="#a3a3a3"/>
	<path d="M13.7,12.3L10,8.6C9.9,8.5,9.7,8.4,9.5,8.3C11,6.3,10.8,3.4,9,1.5C8,0.5,6.6,0,5.3,0S2.6,0.5,1.5,1.5
		c-2.1,2.1-2.1,5.4,0,7.4c1,1,2.4,1.5,3.7,1.5c1.1,0,2.2-0.3,3.1-1c0,0.2,0.1,0.4,0.3,0.5l3.7,3.7c0.2,0.2,0.5,0.3,0.7,0.3
		s0.5-0.1,0.7-0.3C14.1,13.3,14.1,12.7,13.7,12.3z M2.1,8.5c-1.8-1.8-1.8-4.6,0-6.4c0.9-0.9,2-1.3,3.2-1.3s2.3,0.5,3.2,1.3
		c1.8,1.8,1.8,4.6,0,6.4c-0.9,0.9-2,1.3-3.2,1.3S2.9,9.3,2.1,8.5z" fill="#a3a3a3"/>
</g>
</svg>
