<?xml version="1.0" encoding="utf-8"?>
<!-- Generator: Adobe Illustrator 20.1.0, SVG Export Plug-In . SVG Version: 6.00 Build 0)  -->
<svg version="1.1" id="Layer_1" xmlns="http://www.w3.org/2000/svg" xmlns:xlink="http://www.w3.org/1999/xlink" x="0px" y="0px"
	 width="238px" height="295px" viewBox="60 17 138 137" style="enable-background:new 0 0 238 218;" xml:space="preserve">
<style type="text/css">
	.st0{fill:#FFFFFF;}
	.st1{fill:#B7CA9D;}
	.st2{fill:#4B612C;}
	.st3{fill:#759C3E;}
</style>
<g>
	<polygon class="st1" points="201.4,116.1 180.5,113 180.5,116.7 126.9,132.8 111,127.9 111,124.8 104.6,126.3 104.6,126.1
		87.2,121 87.2,117.4 79.8,118.7 79.8,118.5 67.4,114.8 67.4,113.8 52.4,116.1 126.9,142.5 	"/>
	<polygon class="st2" points="79.8,118.5 79.8,27.8 67.4,32.5 67.4,113.8 67.4,114.8 	"/>
	<polygon class="st3" points="79.8,118.5 79.8,118.7 87.2,117.4 87.2,29.5 79.8,27.8 	"/>
	<polygon class="st2" points="87.2,117.4 87.2,121 104.6,126.1 104.6,0 87.2,8.8 87.2,29.5 	"/>
	<polygon class="st3" points="104.6,126.1 104.6,126.3 111,124.8 111,94.2 162.3,90.7 164.2,90.7 164.2,23.3 104.6,0 	"/>
	<polygon class="st2" points="52.4,116.1 52.4,131.4 126.9,168.7 126.9,142.5 	"/>
	<polygon class="st3" points="126.9,142.5 126.9,168.7 201.4,131.4 201.4,116.1 	"/>
	<polygon class="st1" points="111,94.2 126.9,95.8 180.5,90.7 164.2,90.7 162.3,90.7 	"/>
	<polygon class="st2" points="126.9,95.8 111,94.2 111,124.8 111,127.9 126.9,132.8 	"/>
	<polygon class="st3" points="126.9,95.8 126.9,132.8 180.5,116.7 180.5,113 180.5,90.7 	"/>
</g>
</svg>
