<?xml version="1.0" encoding="utf-8"?>
<!-- Generator: Adobe Illustrator 20.1.0, SVG Export Plug-In . SVG Version: 6.00 Build 0)  -->
<svg version="1.1" id="Layer_1" xmlns="http://www.w3.org/2000/svg" xmlns:xlink="http://www.w3.org/1999/xlink" x="0px" y="0px"
	 width="238px" height="274px" viewBox="50 25 148 118" style="enable-background:new 0 0 238 218;" xml:space="preserve">
<style type="text/css">
	.st0{fill:#FFFFFF;}
	.st1{fill:#EFBF1B;}
	.st2{fill:#40BEB0;}
	.st3{fill:#0AA5DE;}
	.st4{fill:#231F20;}
	.st5{fill:#D7A229;}
	.st6{fill:#009B8F;}
</style>

<g>
	<path class="st1" d="M114,47.3H51.8c0,0,0,0.1,0,0.1h111.9c12.3,0,23.4-5.6,30.8-14.4c-15.4-20.1-39.7-33-66.9-33
		c-15.4,0-29.9,4.2-42.4,11.4C97.6,20.7,107.5,33.1,114,47.3z"/>
	<path class="st2" d="M194.7,135.3c-7.4-8.7-18.3-14.2-30.6-14.2H51.7c0,0,0,0.1,0,0.1h63.7c-6,14.7-15.7,27.4-27.8,37.3
		C73,150.7,61,138.6,53.1,123.9c14.2,26.6,42.2,44.7,74.5,44.7C155,168.7,179.3,155.6,194.7,135.3z"/>
	<path class="st3" d="M117.2,108h36.9c13.1,0,23.7-10.6,23.8-23.7c0-13-10.6-23.7-23.7-23.7H117c1.8,7.1,2.9,15,2.9,23.7
		C119.9,93,118.9,100.9,117.2,108z"/>
	<path class="st4" d="M119.9,84.3c0-8.8-1.1-16.6-2.9-23.7H46.6c-2.2,7.5-3.4,15.5-3.4,23.7s1.2,16.2,3.4,23.7h70.6
		C118.9,100.9,119.9,93,119.9,84.3z"/>
	<path class="st5" d="M85.2,11.4C85.2,11.4,85.2,11.4,85.2,11.4c-14.4,8.4-26.1,20.9-33.5,35.9h0.1H114
		C107.5,33.1,97.6,20.7,85.2,11.4z"/>
	<path class="st6" d="M87.7,158.5c12.1-9.8,21.8-22.6,27.8-37.3H51.8h0c0.4,0.9,0.9,1.8,1.4,2.7C61,138.6,73,150.7,87.7,158.5z"/>
</g>
</svg>
